<svg id="svg" version="1.1" xmlns="http://www.w3.org/2000/svg" xmlns:xlink="http://www.w3.org/1999/xlink" width="400" height="266.6666666666667" viewBox="0, 0, 400,266.6666666666667"><g id="svgg"><path id="path0" d="M0.000 66.667 L 0.000 133.333 76.280 133.333 C 137.613 133.333,152.518 133.267,152.347 132.997 C 150.544 130.153,148.745 127.758,147.192 126.133 C 145.395 124.253,143.467 121.657,143.467 121.117 C 143.467 120.984,142.881 120.245,142.164 119.474 C 141.074 118.301,140.842 117.868,140.742 116.823 C 140.676 116.136,140.242 114.826,139.778 113.912 C 139.213 112.802,138.933 111.866,138.933 111.089 C 138.933 109.789,138.372 107.744,137.456 105.707 C 137.120 104.958,136.757 103.765,136.651 103.054 C 136.507 102.092,136.220 101.520,135.530 100.814 C 134.224 99.480,133.937 98.983,133.599 97.469 C 133.436 96.737,132.945 95.436,132.509 94.577 C 132.073 93.718,131.258 91.672,130.699 90.029 C 130.140 88.386,129.297 86.510,128.826 85.860 C 128.040 84.776,127.975 84.532,128.041 82.919 C 128.111 81.198,128.085 81.120,126.830 79.362 C 125.364 77.307,125.358 77.437,126.933 77.210 C 128.687 76.958,130.666 78.199,132.166 80.491 C 133.911 83.158,135.066 84.165,138.060 85.628 C 140.130 86.640,141.019 87.244,141.748 88.133 C 142.795 89.412,144.095 90.005,145.280 89.745 C 146.665 89.441,147.865 90.225,149.443 92.468 C 151.330 95.149,151.579 95.346,154.572 96.514 C 155.249 96.778,155.518 97.136,155.969 98.374 C 156.342 99.397,156.754 100.028,157.206 100.270 C 157.579 100.469,158.285 101.123,158.776 101.721 C 159.833 103.011,163.884 105.826,165.636 106.487 C 168.544 107.585,172.154 113.950,173.602 120.533 C 173.779 121.340,174.239 122.900,174.623 124.000 C 175.211 125.687,175.311 126.391,175.260 128.495 C 175.212 130.480,175.306 131.229,175.718 132.161 L 176.237 133.333 180.879 133.333 L 185.520 133.333 185.233 131.933 C 185.075 131.163,184.973 129.292,185.006 127.775 C 185.061 125.273,185.020 125.005,184.566 124.886 C 184.089 124.761,184.064 124.307,184.035 115.135 L 184.005 105.515 184.826 103.123 C 185.278 101.808,185.858 100.357,186.114 99.899 C 187.101 98.138,187.711 95.510,188.411 90.000 C 188.654 88.093,188.944 86.413,189.057 86.267 C 190.339 84.599,191.288 81.856,191.730 78.533 C 191.906 77.213,192.219 75.164,192.425 73.979 C 192.631 72.794,192.800 70.552,192.800 68.997 C 192.800 67.441,192.917 65.861,193.059 65.487 C 193.460 64.433,194.133 59.907,194.133 58.270 C 194.133 56.722,194.323 56.500,194.991 57.267 C 195.963 58.381,196.065 58.976,196.025 63.309 C 195.927 74.052,195.766 79.255,195.462 81.600 C 195.227 83.406,195.196 85.474,195.353 88.800 C 195.660 95.324,195.635 98.258,195.255 100.267 C 194.843 102.445,194.514 105.112,193.991 110.533 C 193.764 112.880,193.472 115.460,193.342 116.267 C 193.212 117.073,193.093 119.053,193.077 120.667 C 193.052 123.198,192.861 124.547,192.086 127.669 C 192.004 128.000,192.022 129.410,192.127 130.802 L 192.316 133.333 198.158 133.333 L 204.000 133.333 204.000 132.519 C 204.000 131.746,204.469 129.290,205.118 126.667 C 205.755 124.093,208.276 121.020,210.643 119.935 C 211.316 119.626,212.224 119.124,212.661 118.820 C 213.098 118.516,213.660 118.147,213.909 118.000 C 215.662 116.970,216.812 116.051,217.226 115.350 C 217.491 114.901,218.163 113.934,218.719 113.201 C 219.274 112.467,220.002 111.186,220.335 110.353 C 221.399 107.697,223.215 105.485,225.535 104.020 C 228.504 102.146,228.694 101.988,229.850 100.423 C 230.844 99.077,232.339 98.133,233.477 98.133 C 233.697 98.133,234.325 97.854,234.872 97.513 C 236.143 96.721,240.720 94.955,242.049 94.744 C 242.609 94.655,243.323 94.417,243.635 94.214 C 244.500 93.655,247.891 92.642,250.133 92.272 C 251.302 92.080,252.355 91.741,252.667 91.458 C 253.200 90.973,255.272 90.145,255.970 90.137 C 256.174 90.135,256.834 89.679,257.437 89.124 C 258.242 88.383,258.958 88.017,260.133 87.746 C 261.013 87.543,261.856 87.285,262.006 87.173 C 262.801 86.577,265.998 85.644,266.322 85.912 C 267.256 86.688,266.254 90.605,264.338 93.667 C 263.764 94.584,263.086 95.873,262.829 96.533 C 262.573 97.193,261.903 98.159,261.340 98.680 C 260.688 99.283,260.205 100.037,260.012 100.757 C 259.418 102.962,258.233 104.718,255.676 107.180 C 254.778 108.045,253.867 109.889,253.867 110.842 C 253.867 111.194,253.250 112.513,251.237 116.463 C 250.702 117.511,250.110 118.270,249.634 118.516 C 248.707 118.995,248.239 119.700,247.585 121.600 C 247.308 122.407,246.827 123.487,246.516 124.000 C 246.206 124.513,245.877 125.236,245.786 125.605 C 245.695 125.975,245.402 126.515,245.136 126.805 C 243.942 128.105,243.200 129.304,243.200 129.933 C 243.200 130.323,242.800 131.095,242.267 131.733 C 241.753 132.348,241.333 132.959,241.333 133.092 C 241.333 133.235,273.482 133.333,320.667 133.333 L 400.000 133.333 400.000 66.667 L 400.000 0.000 200.000 0.000 L 0.000 0.000 0.000 66.667 " stroke="none" fill="#cc5414" fill-rule="evenodd"></path><path id="path1" d="M194.566 58.189 C 194.502 58.525,194.311 59.940,194.141 61.333 C 193.971 62.727,193.721 64.227,193.586 64.667 C 193.450 65.107,193.219 67.327,193.072 69.600 C 192.926 71.873,192.685 74.393,192.536 75.200 C 192.387 76.007,192.145 77.680,191.998 78.918 C 191.685 81.554,191.416 82.413,190.115 84.933 C 189.418 86.283,189.061 87.427,188.827 89.067 C 187.693 97.005,187.721 96.890,185.600 102.000 C 184.243 105.268,183.595 111.638,184.260 115.165 C 184.591 116.919,184.571 117.863,184.102 122.591 C 183.943 124.187,183.963 124.261,184.629 124.565 C 185.316 124.878,185.321 124.900,185.303 127.908 C 185.286 130.647,185.476 132.172,186.128 134.533 C 186.250 134.973,186.421 135.753,186.508 136.267 C 186.595 136.780,186.979 137.560,187.360 138.000 L 188.053 138.800 187.956 145.230 C 187.897 149.185,187.751 151.802,187.578 152.030 C 186.879 152.948,186.602 154.570,186.903 155.975 C 187.377 158.185,187.120 160.533,186.404 160.533 C 185.602 160.533,183.467 155.680,183.467 153.858 C 183.467 153.468,183.217 152.441,182.913 151.575 C 182.608 150.709,182.265 149.520,182.150 148.933 C 181.877 147.532,180.828 144.778,180.366 144.246 C 180.165 144.014,180.000 143.734,180.000 143.624 C 180.000 143.513,179.605 142.923,179.122 142.312 C 178.179 141.118,177.706 139.959,177.337 137.939 C 176.938 135.753,176.622 134.749,175.746 132.879 C 174.983 131.249,174.905 130.851,174.966 128.933 C 175.040 126.652,174.906 125.776,174.131 123.467 C 173.550 121.732,172.800 118.786,172.800 118.234 C 172.800 118.020,172.423 117.039,171.963 116.056 C 171.503 115.072,170.739 113.348,170.266 112.226 C 169.792 111.103,169.058 109.823,168.636 109.381 C 168.213 108.939,167.483 108.164,167.013 107.658 C 166.418 107.018,165.832 106.687,165.080 106.566 C 164.486 106.471,164.000 106.294,164.000 106.172 C 164.000 106.050,163.580 105.724,163.067 105.448 C 162.553 105.172,162.133 104.853,162.133 104.739 C 162.133 104.626,161.972 104.533,161.774 104.533 C 160.940 104.533,156.146 99.736,155.695 98.450 C 155.250 97.178,155.154 97.099,152.800 96.065 C 151.607 95.540,150.349 94.293,148.704 92.000 C 147.650 90.531,146.364 89.846,145.034 90.046 C 144.099 90.186,142.133 89.530,142.133 89.079 C 142.133 88.572,139.925 86.745,138.766 86.293 C 138.052 86.014,136.671 85.264,135.698 84.627 C 134.037 83.538,133.419 82.873,131.447 80.054 C 130.393 78.549,128.473 77.333,127.148 77.333 C 126.144 77.333,125.741 77.859,126.422 78.280 C 127.542 78.972,128.529 81.329,128.474 83.176 C 128.422 84.875,128.483 85.119,129.120 85.791 C 129.556 86.251,130.197 87.650,130.804 89.467 C 131.344 91.080,132.254 93.392,132.826 94.605 C 133.398 95.818,133.867 97.033,133.867 97.306 C 133.867 98.174,134.596 99.574,135.478 100.400 C 136.391 101.255,137.067 102.563,137.067 103.475 C 137.067 103.783,137.367 104.691,137.734 105.494 C 138.571 107.323,138.965 108.792,139.121 110.667 C 139.197 111.579,139.588 112.856,140.155 114.046 C 140.682 115.152,141.067 116.373,141.067 116.942 C 141.067 117.741,141.304 118.188,142.333 119.324 C 143.030 120.094,143.836 121.191,144.125 121.762 C 144.707 122.914,145.469 123.871,147.756 126.320 C 148.605 127.230,149.922 128.910,150.684 130.054 C 151.445 131.198,152.759 132.853,153.605 133.733 C 154.488 134.653,155.294 135.787,155.499 136.400 C 155.696 136.987,156.309 137.994,156.861 138.638 C 157.414 139.282,157.867 140.013,157.867 140.263 C 157.867 140.769,158.509 142.178,159.205 143.200 C 159.455 143.567,159.812 144.347,159.998 144.933 C 160.434 146.309,160.678 146.597,161.569 146.793 C 162.132 146.917,167.588 150.728,169.789 152.536 C 169.966 152.681,170.215 152.800,170.342 152.800 C 170.780 152.800,171.676 154.001,171.849 154.821 C 172.174 156.360,174.245 158.014,176.529 158.559 C 178.281 158.978,178.659 159.181,179.619 160.228 C 180.504 161.191,180.938 161.449,181.886 161.576 C 182.978 161.723,183.068 161.797,183.210 162.667 C 183.294 163.180,183.806 164.406,184.348 165.392 C 185.031 166.634,185.333 167.517,185.333 168.273 C 185.333 169.316,185.452 170.284,186.166 175.067 C 186.349 176.295,186.551 182.008,186.642 188.533 L 186.800 199.867 188.488 199.947 L 190.175 200.027 189.996 198.597 C 189.872 197.601,189.934 196.888,190.201 196.249 C 190.412 195.744,190.672 194.445,190.779 193.364 C 190.990 191.217,191.803 189.141,193.191 187.200 C 193.663 186.540,194.117 185.810,194.199 185.577 C 194.282 185.344,195.029 184.822,195.859 184.416 C 196.716 183.996,197.462 183.429,197.586 183.102 C 197.861 182.380,202.299 178.133,202.779 178.133 C 202.975 178.133,203.288 177.949,203.475 177.724 C 203.917 177.190,210.039 172.800,210.340 172.800 C 210.467 172.800,211.042 172.404,211.619 171.921 C 212.195 171.437,213.046 170.807,213.510 170.521 C 213.974 170.234,214.938 169.460,215.653 168.800 C 217.164 167.403,217.704 167.070,218.872 166.813 C 219.895 166.589,220.128 166.271,220.052 165.204 C 220.003 164.526,220.221 164.212,221.437 163.200 C 222.231 162.540,223.125 161.577,223.423 161.060 C 223.722 160.543,224.214 159.835,224.517 159.486 C 224.819 159.137,225.067 158.501,225.067 158.073 C 225.067 157.493,225.441 156.901,226.533 155.756 C 227.577 154.661,228.000 154.009,228.000 153.490 C 228.000 152.021,231.210 146.602,232.282 146.262 C 232.537 146.181,233.063 145.489,233.450 144.723 C 233.837 143.958,234.722 142.732,235.417 141.999 C 236.737 140.607,237.333 139.556,237.333 138.623 C 237.333 138.319,237.830 137.575,238.437 136.969 C 239.649 135.759,240.499 134.501,241.073 133.067 C 241.278 132.553,241.712 131.922,242.036 131.663 C 242.360 131.405,242.702 130.805,242.795 130.330 C 243.038 129.091,243.479 128.263,244.464 127.200 C 244.940 126.687,245.330 126.165,245.331 126.040 C 245.332 125.916,245.813 124.818,246.400 123.600 C 246.987 122.382,247.467 121.252,247.467 121.089 C 247.467 120.362,249.181 118.133,249.741 118.133 C 250.092 118.133,253.598 111.404,253.604 110.718 C 253.614 109.561,254.441 108.177,256.389 106.055 C 258.593 103.652,259.138 102.782,259.761 100.669 C 260.000 99.857,260.466 99.114,261.063 98.589 C 262.050 97.722,262.478 97.054,262.756 95.946 C 262.851 95.570,263.366 94.618,263.902 93.831 C 266.463 90.066,267.252 85.137,265.115 86.242 C 264.663 86.475,264.063 86.667,263.783 86.667 C 263.502 86.667,262.960 86.912,262.579 87.211 C 262.196 87.513,261.281 87.828,260.529 87.917 C 259.424 88.048,258.935 88.290,257.904 89.217 C 257.060 89.976,256.285 90.417,255.585 90.537 C 255.007 90.636,253.855 91.126,253.026 91.626 C 252.146 92.156,251.164 92.533,250.665 92.533 C 249.096 92.533,246.000 93.427,243.614 94.569 C 242.889 94.916,241.973 95.200,241.580 95.200 C 240.946 95.200,239.962 95.514,238.267 96.258 C 237.973 96.387,237.163 96.698,236.467 96.949 C 235.770 97.200,235.200 97.495,235.200 97.604 C 235.200 97.837,234.161 98.265,232.667 98.648 C 231.468 98.955,230.484 99.769,229.620 101.168 C 229.103 102.004,225.768 104.526,225.164 104.538 C 224.354 104.553,220.979 108.880,220.634 110.348 C 219.955 113.230,214.636 118.673,211.282 119.917 C 208.535 120.937,205.845 124.355,205.161 127.698 C 204.962 128.671,204.611 130.727,204.380 132.267 C 204.150 133.807,203.803 135.427,203.610 135.867 C 203.417 136.307,203.055 137.447,202.807 138.400 C 202.558 139.353,202.175 140.673,201.956 141.333 C 201.736 141.993,201.439 143.668,201.296 145.056 C 201.032 147.619,200.163 150.790,199.063 153.200 C 198.729 153.933,198.189 155.313,197.864 156.267 C 197.538 157.220,197.114 158.360,196.920 158.800 C 196.201 160.432,194.878 164.729,194.498 166.667 C 193.753 170.466,193.596 171.614,193.345 175.067 C 193.207 176.973,192.980 178.893,192.842 179.333 C 192.704 179.773,192.439 180.823,192.253 181.667 C 191.782 183.802,190.667 183.989,190.667 181.933 C 190.667 181.237,190.482 179.827,190.256 178.800 C 189.444 175.104,189.344 173.604,189.343 165.067 L 189.341 156.400 190.545 154.012 L 191.748 151.624 191.864 139.212 C 191.941 131.026,192.083 126.482,192.282 125.867 C 192.448 125.353,192.677 123.073,192.790 120.800 C 192.904 118.527,193.197 115.050,193.440 113.073 C 193.684 111.097,193.996 108.097,194.133 106.407 C 194.270 104.716,194.592 102.253,194.849 100.933 C 195.176 99.255,195.290 97.611,195.230 95.467 C 194.956 85.709,195.130 78.724,195.771 73.691 C 195.968 72.145,195.963 71.104,195.755 70.091 C 195.548 69.087,195.537 67.351,195.719 64.205 C 195.933 60.494,195.912 59.588,195.592 58.823 C 195.103 57.651,194.714 57.411,194.566 58.189 M157.600 202.396 C 157.600 202.913,157.821 202.928,166.333 202.996 L 175.067 203.067 175.139 208.200 C 175.208 213.112,175.151 213.574,174.524 213.129 C 173.598 212.472,173.076 211.367,173.232 210.394 C 173.930 206.028,167.942 202.476,164.942 205.476 C 163.048 207.370,163.979 210.141,166.506 210.127 C 168.256 210.118,168.896 209.444,168.943 207.560 C 168.995 205.471,168.960 205.531,169.864 205.999 C 174.358 208.322,170.644 215.095,165.806 213.400 C 163.386 212.552,161.041 209.444,159.970 205.667 C 159.679 204.639,158.400 203.894,158.400 204.752 C 158.400 205.379,159.440 208.118,160.720 210.860 C 162.872 215.472,168.760 217.442,171.551 214.484 C 172.009 213.998,172.528 213.600,172.705 213.600 C 173.199 213.600,175.008 215.570,175.563 216.712 C 175.835 217.274,176.149 217.913,176.258 218.133 C 176.368 218.353,176.685 218.533,176.962 218.533 C 177.442 218.533,177.473 218.160,177.600 210.800 L 177.733 203.067 180.000 203.067 C 181.884 203.067,182.249 203.134,182.160 203.467 C 181.684 205.254,181.722 205.333,183.063 205.333 C 186.276 205.333,188.097 208.129,186.686 210.895 C 185.678 212.872,184.447 213.263,183.232 211.991 C 182.729 211.465,182.259 211.197,182.008 211.293 C 181.297 211.566,181.561 212.242,182.924 213.642 L 184.248 215.001 185.720 214.879 C 187.428 214.737,187.631 214.557,189.729 211.333 C 192.346 207.312,193.600 208.198,193.600 214.068 C 193.600 217.255,194.168 218.776,195.297 218.615 C 195.862 218.534,195.867 218.469,195.937 210.733 L 196.008 202.933 197.849 202.933 C 200.348 202.933,200.585 203.040,200.109 203.952 C 199.469 205.180,199.588 205.272,201.933 205.373 C 204.508 205.483,206.155 206.372,206.683 207.936 C 207.152 209.324,206.969 209.478,204.975 209.376 C 203.247 209.287,203.168 209.312,202.264 210.216 C 199.413 213.067,203.821 215.758,206.843 213.009 C 207.938 212.013,210.518 214.012,212.250 217.200 C 213.821 220.092,213.983 219.543,214.133 210.800 L 214.267 203.067 215.533 202.985 C 216.582 202.918,216.800 202.815,216.800 202.385 C 216.800 201.875,216.344 201.867,187.200 201.867 C 157.846 201.867,157.600 201.871,157.600 202.396 M193.544 205.267 C 193.628 207.641,193.374 208.010,192.400 206.933 C 191.677 206.135,190.545 206.253,189.617 207.225 C 188.760 208.121,188.267 208.064,188.267 207.068 C 188.267 206.119,187.861 205.231,186.957 204.201 C 185.863 202.955,185.983 202.908,189.985 202.993 L 193.467 203.067 193.544 205.267 M211.673 208.125 C 211.764 214.445,211.838 214.284,209.820 212.126 C 208.218 210.414,208.169 210.318,208.236 209.061 C 208.348 206.945,207.147 204.805,205.317 203.858 C 203.922 203.137,204.669 202.914,208.221 202.992 L 211.600 203.067 211.673 208.125 " stroke="none" fill="#fafaf9" fill-rule="evenodd"></path><path id="path2" d="M0.000 200.000 L 0.000 266.667 200.000 266.667 L 400.000 266.667 400.000 200.000 L 400.000 133.333 320.867 133.337 C 277.343 133.340,241.612 133.430,241.464 133.537 C 241.316 133.645,240.956 134.197,240.664 134.764 C 240.372 135.331,239.623 136.285,239.000 136.884 C 238.377 137.483,237.867 138.165,237.867 138.401 C 237.867 139.111,236.597 141.406,235.654 142.400 C 235.167 142.913,234.369 144.005,233.879 144.827 C 233.360 145.699,232.628 146.515,232.118 146.789 C 231.639 147.048,231.184 147.456,231.107 147.696 C 231.030 147.937,230.730 148.553,230.440 149.067 C 230.149 149.580,229.840 150.180,229.753 150.400 C 229.666 150.620,229.364 151.160,229.083 151.600 C 228.802 152.040,228.564 152.799,228.553 153.286 C 228.538 153.983,228.220 154.502,227.066 155.711 C 226.143 156.679,225.562 157.536,225.497 158.024 C 225.373 158.969,225.073 159.733,224.827 159.733 C 224.727 159.733,224.305 160.303,223.889 161.000 C 223.472 161.697,222.556 162.747,221.852 163.333 C 220.760 164.243,220.569 164.545,220.553 165.385 C 220.532 166.428,219.814 167.200,218.865 167.200 C 218.182 167.200,217.191 167.875,215.257 169.656 C 214.335 170.505,213.454 171.200,213.299 171.200 C 213.145 171.200,212.527 171.620,211.928 172.133 C 211.328 172.647,210.720 173.067,210.577 173.067 C 210.433 173.067,209.705 173.531,208.958 174.099 C 208.211 174.667,207.060 175.477,206.400 175.899 C 205.740 176.321,204.840 177.003,204.400 177.415 C 203.960 177.827,203.180 178.388,202.667 178.661 C 201.466 179.300,198.172 182.530,197.846 183.389 C 197.708 183.751,197.236 184.184,196.797 184.349 C 196.359 184.515,196.000 184.731,196.000 184.830 C 196.000 184.928,195.730 185.085,195.400 185.178 C 194.001 185.572,191.200 191.129,191.200 193.511 C 191.200 194.312,191.051 195.231,190.869 195.551 C 190.687 195.871,190.477 197.033,190.402 198.133 L 190.267 200.133 188.400 200.133 L 186.533 200.133 186.222 188.400 C 186.051 181.947,185.779 175.647,185.619 174.400 C 185.459 173.153,185.221 170.993,185.091 169.600 C 184.888 167.429,184.717 166.826,183.901 165.388 C 183.089 163.957,182.813 163.200,182.689 162.067 C 182.677 161.957,182.205 161.867,181.642 161.867 C 180.670 161.867,178.400 160.149,178.400 159.414 C 178.400 159.296,178.130 159.199,177.800 159.197 C 175.342 159.184,171.924 156.963,171.551 155.137 C 171.380 154.302,169.782 152.563,169.145 152.518 C 169.028 152.510,168.333 152.032,167.600 151.455 C 164.655 149.140,161.897 147.200,161.551 147.200 C 160.821 147.200,160.008 146.356,159.680 145.257 C 159.496 144.639,158.952 143.480,158.472 142.682 C 157.993 141.884,157.600 141.044,157.599 140.816 C 157.598 140.322,156.824 139.035,156.032 138.211 C 155.721 137.887,155.467 137.516,155.467 137.385 C 155.467 136.957,154.601 135.345,154.028 134.708 C 152.706 133.236,158.213 133.333,76.013 133.333 L 0.000 133.333 0.000 200.000 M176.533 133.604 C 176.533 133.752,176.640 134.082,176.771 134.337 C 177.203 135.178,177.867 137.766,177.867 138.608 C 177.867 139.063,177.971 139.500,178.099 139.579 C 178.227 139.658,178.398 140.055,178.481 140.461 C 178.563 140.868,178.854 141.440,179.128 141.733 C 179.402 142.027,179.861 142.687,180.147 143.200 C 180.433 143.713,180.732 144.193,180.812 144.267 C 181.219 144.639,182.400 147.880,182.400 148.625 C 182.400 149.096,182.554 149.718,182.742 150.007 C 183.245 150.780,183.666 152.206,183.878 153.853 C 183.981 154.653,184.290 155.833,184.566 156.476 C 184.841 157.118,185.067 157.858,185.067 158.119 C 185.067 158.767,186.108 160.047,186.459 159.830 C 186.648 159.713,186.685 158.709,186.569 156.810 C 186.415 154.276,186.462 153.778,186.997 152.249 C 187.943 149.542,187.882 139.147,186.913 138.037 C 186.557 137.631,186.184 136.856,186.084 136.316 C 185.731 134.423,185.518 133.732,185.227 133.537 C 184.762 133.227,176.533 133.290,176.533 133.604 M192.390 135.000 C 192.282 135.917,192.198 140.019,192.204 144.117 L 192.215 151.567 190.988 153.963 L 189.762 156.359 189.834 166.243 C 189.874 171.679,189.998 176.248,190.111 176.397 C 190.305 176.653,190.704 178.854,191.074 181.699 C 191.436 184.489,192.349 180.993,192.945 174.533 C 193.148 172.333,193.445 169.933,193.605 169.200 C 193.765 168.467,193.998 167.320,194.123 166.652 C 194.417 165.088,194.896 163.212,195.175 162.533 C 195.295 162.240,195.608 161.340,195.870 160.533 C 196.132 159.727,196.426 158.947,196.524 158.800 C 196.622 158.653,196.929 157.813,197.206 156.933 C 197.483 156.053,197.805 155.219,197.921 155.080 C 198.038 154.941,198.133 154.674,198.133 154.487 C 198.133 154.301,198.423 153.515,198.777 152.741 C 199.131 151.967,199.620 150.673,199.863 149.867 C 200.106 149.060,200.407 148.160,200.533 147.867 C 200.658 147.573,200.836 146.283,200.928 145.000 C 201.083 142.829,201.309 141.726,201.870 140.400 C 201.994 140.107,202.240 139.207,202.418 138.400 C 202.595 137.593,202.963 136.359,203.237 135.657 C 204.196 133.192,204.504 133.333,198.160 133.333 L 192.586 133.333 192.390 135.000 M217.333 202.400 C 217.333 203.182,217.304 203.200,216.000 203.200 L 214.667 203.200 214.667 210.928 L 214.667 218.657 213.997 218.825 C 213.177 219.030,212.667 218.641,211.971 217.276 C 210.634 214.656,207.827 212.319,207.211 213.315 C 206.144 215.042,202.114 214.684,201.330 212.792 C 200.484 210.749,202.163 209.067,205.049 209.067 C 206.791 209.067,206.897 208.952,206.271 207.741 C 205.552 206.351,204.492 205.839,201.927 205.644 C 199.415 205.453,199.322 205.370,199.838 203.800 C 200.030 203.219,199.982 203.200,198.285 203.200 L 196.533 203.200 196.533 210.915 C 196.533 218.486,196.523 218.634,195.981 218.806 C 194.151 219.387,193.338 217.896,193.321 213.922 C 193.301 209.473,192.419 208.098,191.057 210.392 C 190.622 211.124,190.177 211.725,190.067 211.728 C 189.957 211.731,189.867 211.900,189.867 212.103 C 189.867 213.322,187.336 215.200,185.693 215.200 C 183.971 215.200,181.822 213.628,181.431 212.082 C 181.084 210.709,182.467 210.508,183.709 211.750 C 184.718 212.759,185.779 212.341,186.550 210.630 C 187.677 208.130,186.311 205.972,183.397 205.650 C 181.680 205.461,181.028 204.732,181.844 203.916 C 182.423 203.337,182.095 203.200,180.133 203.200 L 178.133 203.200 178.133 210.915 C 178.133 218.397,178.117 218.636,177.600 218.800 C 176.683 219.091,176.097 218.702,175.717 217.552 C 175.517 216.944,174.802 215.848,174.129 215.116 L 172.905 213.785 171.986 214.722 C 168.737 218.033,162.982 215.941,160.294 210.472 C 158.723 207.275,157.941 204.885,158.338 204.489 C 158.896 203.931,160.111 204.358,160.364 205.200 C 162.160 211.174,165.683 214.302,169.188 213.035 C 171.811 212.086,172.260 207.681,169.865 206.399 C 169.413 206.157,169.381 206.218,169.516 207.052 C 170.043 210.302,165.570 212.018,164.044 209.151 C 162.645 206.525,164.575 204.260,168.196 204.276 C 171.668 204.290,173.867 206.573,173.867 210.164 C 173.867 211.378,173.987 211.854,174.400 212.267 L 174.933 212.800 174.933 208.000 L 174.933 203.200 166.133 203.200 L 157.333 203.200 157.333 202.400 L 157.333 201.600 187.333 201.600 L 217.333 201.600 217.333 202.400 M187.277 203.737 C 187.652 204.032,188.230 204.973,188.562 205.828 L 189.165 207.382 189.723 206.733 C 190.430 205.911,191.994 205.804,192.788 206.522 C 193.333 207.015,193.333 207.013,193.333 205.108 L 193.333 203.200 189.964 203.200 L 186.595 203.200 187.277 203.737 M205.600 203.500 C 207.412 204.222,208.528 206.050,208.642 208.480 C 208.728 210.317,208.737 210.338,210.097 211.649 L 211.467 212.969 211.467 208.084 L 211.467 203.200 208.200 203.217 C 205.748 203.230,205.100 203.300,205.600 203.500 " stroke="none" fill="#247c1c" fill-rule="evenodd"></path><path id="path3" d="M152.957 133.838 C 153.888 134.405,154.933 135.630,154.933 136.154 C 154.933 136.345,155.053 136.576,155.199 136.666 C 155.368 136.770,155.362 136.557,155.183 136.082 C 154.829 135.140,153.094 133.333,152.546 133.334 C 152.318 133.335,152.502 133.560,152.957 133.838 M185.267 133.510 C 185.450 133.584,185.602 133.904,185.604 134.222 C 185.606 134.540,185.730 134.980,185.879 135.200 C 186.078 135.495,186.106 135.389,185.986 134.800 C 185.721 133.508,185.635 133.332,185.275 133.354 C 185.007 133.371,185.006 133.405,185.267 133.510 M192.166 133.744 C 192.075 133.982,192.018 135.397,192.039 136.888 L 192.078 139.600 192.284 136.533 C 192.491 133.440,192.470 132.952,192.166 133.744 M203.773 133.778 C 203.751 134.096,203.656 134.576,203.561 134.845 C 203.428 135.221,203.464 135.264,203.715 135.032 C 203.895 134.867,203.990 134.387,203.927 133.966 C 203.847 133.426,203.801 133.371,203.773 133.778 M240.884 133.800 C 240.793 134.057,240.658 134.375,240.584 134.508 C 240.511 134.641,240.589 134.663,240.759 134.559 C 240.928 134.454,241.067 134.206,241.067 134.006 C 241.067 133.807,241.217 133.584,241.400 133.510 C 241.661 133.405,241.659 133.371,241.392 133.354 C 241.204 133.343,240.975 133.543,240.884 133.800 M239.136 136.337 C 238.441 137.084,237.902 137.724,237.937 137.759 C 238.062 137.884,239.701 136.298,240.143 135.622 C 240.786 134.641,240.574 134.792,239.136 136.337 M202.964 136.293 C 202.801 136.762,202.675 137.278,202.685 137.440 C 202.696 137.601,202.876 137.264,203.087 136.690 C 203.297 136.116,203.422 135.600,203.365 135.543 C 203.308 135.486,203.128 135.823,202.964 136.293 M177.379 136.933 C 177.383 137.227,177.483 137.767,177.600 138.133 L 177.814 138.800 177.821 138.133 C 177.826 137.767,177.726 137.227,177.600 136.933 L 177.371 136.400 177.379 136.933 M186.141 136.803 C 186.137 137.024,186.450 137.547,186.837 137.964 L 187.541 138.723 187.570 144.420 C 187.590 148.188,187.679 149.826,187.833 149.258 C 188.288 147.579,187.822 138.665,187.246 138.028 C 186.968 137.719,186.607 137.227,186.445 136.933 C 186.236 136.556,186.147 136.518,186.141 136.803 M202.433 138.133 C 202.411 138.353,202.326 138.833,202.245 139.200 C 202.117 139.776,202.138 139.802,202.399 139.392 C 202.566 139.131,202.650 138.651,202.587 138.326 C 202.524 138.000,202.455 137.913,202.433 138.133 M156.629 138.879 C 157.009 139.362,157.450 140.244,157.611 140.839 C 157.771 141.434,157.951 141.872,158.010 141.812 C 158.293 141.529,157.479 139.613,156.753 138.852 L 155.939 138.000 156.629 138.879 M237.516 138.502 C 237.415 138.763,237.341 139.177,237.350 139.422 C 237.361 139.716,237.454 139.649,237.625 139.223 C 237.766 138.869,237.840 138.455,237.790 138.303 C 237.739 138.151,237.616 138.241,237.516 138.502 M177.867 139.593 C 177.867 140.004,178.651 141.559,178.952 141.745 C 179.143 141.863,179.097 141.676,178.846 141.318 C 178.601 140.968,178.400 140.475,178.400 140.223 C 178.400 139.971,178.280 139.691,178.133 139.600 C 177.987 139.509,177.867 139.506,177.867 139.593 M201.786 140.467 C 201.579 140.835,201.288 142.268,201.453 142.102 C 201.651 141.904,202.137 140.267,201.997 140.267 C 201.943 140.267,201.848 140.357,201.786 140.467 M192.090 142.667 C 192.090 143.767,192.137 144.217,192.194 143.667 C 192.252 143.117,192.252 142.217,192.194 141.667 C 192.137 141.117,192.090 141.567,192.090 142.667 M235.257 142.503 C 234.664 143.146,233.974 144.076,233.725 144.570 C 233.475 145.063,233.018 145.743,232.708 146.081 C 232.346 146.477,232.289 146.641,232.548 146.542 C 232.768 146.457,233.357 145.701,233.855 144.861 C 234.353 144.021,234.829 143.271,234.913 143.196 C 235.426 142.736,236.608 141.333,236.484 141.333 C 236.402 141.333,235.849 141.860,235.257 142.503 M158.366 142.533 C 158.510 142.827,158.823 143.307,159.062 143.600 L 159.496 144.133 159.234 143.600 C 159.090 143.307,158.777 142.827,158.538 142.533 L 158.104 142.000 158.366 142.533 M200.957 144.226 C 200.850 145.303,200.820 146.243,200.891 146.313 C 201.067 146.490,201.421 143.060,201.272 142.620 C 201.206 142.426,201.064 143.148,200.957 144.226 M159.485 144.718 C 159.546 145.410,159.963 145.997,159.981 145.416 C 159.992 145.094,159.880 144.757,159.733 144.667 C 159.587 144.576,159.475 144.599,159.485 144.718 M160.617 146.733 C 160.897 146.990,161.322 147.192,161.563 147.183 C 161.839 147.172,161.760 147.070,161.348 146.906 C 160.989 146.762,160.563 146.560,160.402 146.456 C 160.240 146.352,160.337 146.477,160.617 146.733 M192.097 149.200 C 192.098 150.667,192.143 151.233,192.197 150.458 C 192.251 149.683,192.250 148.483,192.196 147.791 C 192.141 147.099,192.097 147.733,192.097 149.200 M182.055 148.014 C 182.138 148.666,182.250 149.250,182.303 149.311 C 182.521 149.561,182.373 147.570,182.148 147.214 C 181.990 146.964,181.957 147.247,182.055 148.014 M162.267 147.389 C 162.736 147.860,165.600 149.889,165.600 149.750 C 165.600 149.677,164.970 149.155,164.200 148.591 C 162.678 147.476,161.824 146.945,162.267 147.389 M200.453 147.933 C 200.246 148.302,199.955 149.734,200.120 149.569 C 200.318 149.371,200.803 147.733,200.664 147.733 C 200.609 147.733,200.514 147.823,200.453 147.933 M165.993 150.121 C 166.249 150.537,169.086 152.603,169.218 152.470 C 169.279 152.410,168.538 151.791,167.571 151.096 C 166.604 150.400,165.894 149.962,165.993 150.121 M186.960 152.160 C 186.807 152.716,186.726 153.215,186.781 153.270 C 186.835 153.324,187.024 152.933,187.200 152.400 C 187.376 151.867,187.457 151.368,187.379 151.290 C 187.302 151.213,187.113 151.604,186.960 152.160 M183.373 152.400 C 183.638 154.285,183.987 155.229,183.817 153.600 C 183.733 152.793,183.565 151.953,183.443 151.733 C 183.315 151.499,183.285 151.776,183.373 152.400 M198.689 152.945 C 197.932 154.656,198.010 154.818,198.831 153.241 C 199.201 152.530,199.445 151.890,199.374 151.818 C 199.303 151.747,198.995 152.254,198.689 152.945 M169.600 152.766 C 169.600 152.931,169.726 153.067,169.879 153.067 C 170.033 153.067,170.470 153.397,170.850 153.800 C 171.230 154.203,171.488 154.364,171.423 154.156 C 171.264 153.652,169.600 152.383,169.600 152.766 M228.267 153.353 C 228.267 153.984,227.923 154.533,226.773 155.739 C 225.952 156.600,225.342 157.461,225.419 157.652 C 225.526 157.921,225.563 157.914,225.579 157.624 C 225.591 157.417,226.260 156.556,227.067 155.711 C 228.364 154.350,229.127 152.533,228.400 152.533 C 228.327 152.533,228.267 152.902,228.267 153.353 M186.476 154.800 C 186.478 155.533,186.530 155.802,186.591 155.396 C 186.653 154.991,186.651 154.391,186.588 154.063 C 186.524 153.735,186.474 154.067,186.476 154.800 M171.488 155.043 C 171.460 155.701,174.420 158.670,175.091 158.656 C 175.457 158.649,175.375 158.545,174.800 158.288 C 173.835 157.855,172.281 156.272,171.834 155.265 C 171.583 154.698,171.505 154.648,171.488 155.043 M197.786 155.133 C 197.579 155.502,197.288 156.934,197.453 156.769 C 197.651 156.571,198.137 154.933,197.997 154.933 C 197.943 154.933,197.848 155.023,197.786 155.133 M189.550 156.600 C 189.394 157.426,189.602 174.758,189.770 174.925 C 189.844 174.999,189.872 170.771,189.832 165.530 C 189.793 160.288,189.739 156.000,189.711 156.000 C 189.684 156.000,189.611 156.270,189.550 156.600 M184.556 157.067 C 184.564 157.287,184.674 157.707,184.800 158.000 L 185.029 158.533 185.044 158.000 C 185.052 157.707,184.942 157.287,184.800 157.067 C 184.570 156.711,184.543 156.711,184.556 157.067 M186.747 158.133 C 186.747 158.940,186.797 159.270,186.858 158.867 C 186.919 158.463,186.919 157.803,186.858 157.400 C 186.797 156.997,186.747 157.327,186.747 158.133 M176.267 158.933 C 176.633 159.051,177.173 159.150,177.467 159.155 L 178.000 159.163 177.467 158.933 C 177.173 158.807,176.633 158.708,176.267 158.712 L 175.600 158.720 176.267 158.933 M196.253 159.370 C 196.105 159.757,196.035 160.123,196.095 160.184 C 196.156 160.244,196.333 159.928,196.489 159.480 C 196.835 158.486,196.626 158.388,196.253 159.370 M178.408 159.396 C 178.420 159.671,179.735 161.154,179.858 161.031 C 179.912 160.977,179.606 160.541,179.178 160.062 C 178.750 159.583,178.404 159.283,178.408 159.396 M185.708 159.667 C 186.263 160.322,186.667 160.444,186.667 159.956 C 186.667 159.784,186.586 159.725,186.488 159.823 C 186.390 159.921,186.060 159.791,185.755 159.534 C 185.200 159.067,185.200 159.067,185.708 159.667 M195.600 161.067 C 195.500 161.382,195.478 161.700,195.551 161.774 C 195.625 161.847,195.767 161.649,195.867 161.333 C 195.967 161.018,195.989 160.700,195.915 160.626 C 195.842 160.553,195.700 160.751,195.600 161.067 M221.533 163.321 C 220.468 164.301,220.267 164.641,220.267 165.456 C 220.267 166.295,220.150 166.477,219.400 166.802 C 218.923 167.010,218.717 167.184,218.941 167.190 C 219.808 167.212,220.533 166.400,220.553 165.385 C 220.570 164.545,220.767 164.233,221.896 163.267 C 222.624 162.643,223.125 162.138,223.010 162.144 C 222.894 162.150,222.230 162.679,221.533 163.321 M195.119 162.600 C 194.913 162.968,194.621 164.401,194.787 164.236 C 194.985 164.038,195.470 162.400,195.330 162.400 C 195.276 162.400,195.181 162.490,195.119 162.600 M194.281 165.748 C 194.181 166.283,194.152 166.774,194.217 166.840 C 194.283 166.905,194.418 166.520,194.519 165.985 C 194.619 165.450,194.648 164.959,194.583 164.894 C 194.517 164.828,194.382 165.213,194.281 165.748 M184.988 168.839 C 185.151 171.475,185.288 171.743,185.308 169.467 C 185.318 168.440,185.222 167.437,185.096 167.239 C 184.962 167.027,184.918 167.693,184.988 168.839 M217.467 167.514 C 217.173 167.678,216.269 168.424,215.457 169.173 C 214.645 169.921,213.745 170.676,213.457 170.851 C 213.169 171.026,213.074 171.176,213.246 171.184 C 213.417 171.193,214.387 170.450,215.401 169.533 C 216.414 168.617,217.474 167.724,217.755 167.549 C 218.405 167.146,218.176 167.118,217.467 167.514 M193.766 168.144 C 193.675 168.382,193.612 168.837,193.627 169.155 C 193.645 169.521,193.735 169.391,193.874 168.802 C 194.106 167.811,194.043 167.422,193.766 168.144 M185.525 173.600 C 185.605 174.700,185.767 176.080,185.885 176.667 C 186.024 177.358,186.046 176.957,185.948 175.527 C 185.865 174.313,185.703 172.933,185.588 172.460 C 185.463 171.943,185.438 172.398,185.525 173.600 M192.974 174.492 C 192.857 176.082,192.818 177.441,192.888 177.511 C 193.068 177.690,193.404 173.367,193.286 172.400 C 193.232 171.960,193.092 172.901,192.974 174.492 M210.267 172.953 C 209.827 173.182,209.227 173.578,208.933 173.833 C 208.640 174.089,207.710 174.761,206.867 175.327 C 206.023 175.892,205.333 176.402,205.333 176.459 C 205.333 176.653,206.956 175.607,208.616 174.343 C 209.524 173.652,210.410 173.082,210.584 173.076 C 210.759 173.071,210.976 172.947,211.067 172.800 C 211.284 172.448,211.210 172.462,210.267 172.953 M190.027 176.978 C 190.272 177.999,190.400 178.096,190.400 177.260 C 190.400 176.878,190.275 176.488,190.123 176.393 C 189.941 176.281,189.908 176.482,190.027 176.978 M204.108 177.362 C 203.829 177.671,203.180 178.140,202.667 178.404 C 202.153 178.668,201.373 179.281,200.933 179.766 C 200.171 180.606,200.186 180.601,201.267 179.657 C 201.891 179.112,202.510 178.667,202.642 178.667 C 202.775 178.667,203.386 178.247,204.000 177.733 C 204.614 177.220,205.004 176.800,204.867 176.800 C 204.729 176.800,204.387 177.053,204.108 177.362 M192.448 178.847 C 192.196 179.757,191.975 181.333,192.099 181.333 C 192.270 181.333,192.838 178.616,192.697 178.474 C 192.634 178.411,192.522 178.579,192.448 178.847 M190.700 180.751 C 190.682 181.531,190.788 182.396,190.937 182.674 C 191.284 183.321,192.006 183.066,191.983 182.305 C 191.967 181.763,191.953 181.766,191.711 182.372 C 191.356 183.258,191.209 182.996,190.954 181.032 L 190.734 179.333 190.700 180.751 M186.331 190.000 C 186.477 201.141,186.298 200.320,188.560 200.214 L 190.267 200.133 190.286 198.332 L 190.306 196.531 190.208 198.266 L 190.109 200.000 188.388 200.000 L 186.667 200.000 186.631 193.267 C 186.611 189.563,186.506 185.093,186.398 183.333 C 186.289 181.573,186.259 184.573,186.331 190.000 M197.063 183.928 C 196.451 184.566,196.445 184.596,196.985 184.308 C 197.583 183.990,197.997 183.508,197.823 183.334 C 197.769 183.280,197.427 183.548,197.063 183.928 M195.184 184.926 C 194.809 185.130,194.357 185.635,194.180 186.048 C 193.883 186.743,193.889 186.760,194.262 186.282 C 194.485 185.998,194.667 185.670,194.667 185.554 C 194.667 185.438,194.967 185.268,195.333 185.176 C 195.700 185.084,196.000 184.902,196.000 184.771 C 196.000 184.477,196.014 184.475,195.184 184.926 M193.282 187.400 C 192.812 187.947,192.460 188.533,192.601 188.533 C 192.655 188.533,192.966 188.173,193.291 187.733 C 193.934 186.864,193.928 186.648,193.282 187.400 M191.453 190.837 C 191.305 191.224,191.235 191.590,191.295 191.651 C 191.356 191.711,191.533 191.394,191.689 190.947 C 192.035 189.952,191.826 189.855,191.453 190.837 M190.980 193.778 C 190.954 194.390,190.864 195.110,190.780 195.378 C 190.636 195.837,190.645 195.838,190.928 195.397 C 191.094 195.138,191.184 194.418,191.128 193.797 L 191.027 192.667 190.980 193.778 M216.933 202.400 C 216.933 202.840,217.023 203.200,217.133 203.200 C 217.243 203.200,217.333 202.840,217.333 202.400 C 217.333 201.960,217.243 201.600,217.133 201.600 C 217.023 201.600,216.933 201.960,216.933 202.400 M174.985 208.000 C 174.937 211.507,174.839 212.798,174.645 212.467 C 174.496 212.210,174.233 212.000,174.061 212.000 C 173.889 212.000,174.011 212.263,174.333 212.585 C 175.196 213.448,175.219 213.311,175.133 207.972 L 175.054 203.067 174.985 208.000 M177.985 210.933 C 177.985 215.260,178.021 217.030,178.066 214.867 C 178.111 212.703,178.111 209.163,178.066 207.000 C 178.021 204.837,177.985 206.607,177.985 210.933 M196.265 210.797 L 196.133 218.528 195.333 218.699 C 194.614 218.853,194.600 218.873,195.200 218.898 C 196.561 218.954,196.547 219.044,196.469 210.782 L 196.396 203.067 196.265 210.797 M211.527 208.087 L 211.467 213.108 210.779 212.290 C 210.401 211.841,209.711 211.208,209.246 210.883 C 208.682 210.490,208.889 210.796,209.866 211.801 C 211.761 213.749,211.760 213.752,211.666 207.980 L 211.587 203.067 211.527 208.087 M214.518 210.933 C 214.518 215.260,214.555 217.030,214.599 214.867 C 214.644 212.703,214.644 209.163,214.599 207.000 C 214.555 204.837,214.518 206.607,214.518 210.933 M187.646 204.589 C 188.061 205.261,188.439 205.774,188.486 205.730 C 188.639 205.587,187.783 204.106,187.330 203.731 C 187.089 203.531,187.231 203.917,187.646 204.589 M206.469 204.283 C 207.021 204.787,207.706 205.680,207.992 206.267 C 208.278 206.853,208.517 207.133,208.523 206.887 C 208.536 206.313,206.998 204.310,206.133 203.777 C 205.746 203.537,205.886 203.749,206.469 204.283 M199.614 204.439 C 199.369 205.416,199.573 205.521,202.000 205.665 C 203.173 205.734,203.893 205.697,203.600 205.581 C 203.307 205.465,202.307 205.362,201.379 205.352 L 199.691 205.333 199.867 204.533 C 200.083 203.547,199.859 203.463,199.614 204.439 M158.225 204.678 C 158.139 204.904,158.142 205.164,158.234 205.256 C 158.325 205.347,158.400 205.222,158.400 204.978 C 158.400 204.151,159.907 204.401,160.137 205.267 C 160.245 205.670,160.385 205.857,160.450 205.681 C 160.515 205.506,160.436 205.116,160.275 204.815 C 159.918 204.148,158.466 204.051,158.225 204.678 M165.763 204.485 C 165.689 204.605,165.982 204.652,166.414 204.588 C 166.846 204.525,167.200 204.426,167.200 204.370 C 167.200 204.167,165.895 204.271,165.763 204.485 M168.822 204.362 C 169.118 204.614,170.678 204.767,170.531 204.529 C 170.442 204.385,169.996 204.267,169.540 204.267 C 169.084 204.267,168.761 204.309,168.822 204.362 M171.674 205.564 C 172.981 206.898,173.415 207.932,173.442 209.778 C 173.456 210.682,173.570 211.522,173.697 211.644 C 173.825 211.769,173.881 211.028,173.823 209.968 C 173.709 207.877,172.766 205.928,171.467 205.098 C 170.937 204.760,170.980 204.855,171.674 205.564 M182.000 205.466 C 182.678 205.695,184.842 205.790,184.503 205.575 C 184.300 205.447,183.593 205.349,182.933 205.358 C 182.273 205.368,181.853 205.416,182.000 205.466 M169.247 207.177 C 169.560 209.818,166.545 211.365,164.617 209.554 C 164.278 209.235,164.000 209.050,164.000 209.143 C 164.000 209.800,165.273 210.400,166.667 210.400 C 168.904 210.400,169.874 209.260,169.516 207.052 C 169.339 205.961,169.918 206.103,170.923 207.396 C 171.321 207.909,171.411 207.957,171.216 207.554 C 170.928 206.957,169.696 205.867,169.310 205.867 C 169.190 205.867,169.162 206.456,169.247 207.177 M205.241 206.571 C 205.704 206.990,206.211 207.573,206.367 207.867 C 206.523 208.160,206.654 208.266,206.659 208.103 C 206.671 207.663,205.644 206.440,204.979 206.102 C 204.594 205.907,204.682 206.064,205.241 206.571 M188.542 206.533 C 188.542 206.827,188.658 207.247,188.800 207.467 C 189.014 207.798,189.058 207.775,189.058 207.333 C 189.058 207.040,188.942 206.620,188.800 206.400 C 188.586 206.069,188.542 206.092,188.542 206.533 M160.668 206.967 C 160.945 207.881,161.291 208.164,161.135 207.350 C 161.062 206.970,160.884 206.586,160.740 206.496 C 160.576 206.395,160.549 206.572,160.668 206.967 M163.810 207.600 C 163.812 208.333,163.863 208.602,163.925 208.196 C 163.986 207.791,163.984 207.191,163.921 206.863 C 163.858 206.535,163.808 206.867,163.810 207.600 M161.333 208.444 C 161.333 209.163,163.692 212.090,164.667 212.581 C 164.960 212.729,164.696 212.389,164.080 211.825 C 163.464 211.261,162.594 210.207,162.147 209.481 C 161.699 208.756,161.333 208.289,161.333 208.444 M208.595 209.067 C 208.595 209.580,208.650 209.790,208.717 209.533 C 208.784 209.277,208.784 208.857,208.717 208.600 C 208.650 208.343,208.595 208.553,208.595 209.067 M191.534 209.133 C 190.880 209.959,189.880 211.733,190.069 211.733 C 190.185 211.733,190.492 211.343,190.752 210.867 C 191.686 209.158,191.928 208.944,192.458 209.360 C 192.891 209.700,192.900 209.691,192.567 209.267 C 192.134 208.714,191.892 208.682,191.534 209.133 M203.927 209.259 C 204.401 209.318,205.241 209.319,205.794 209.261 C 206.347 209.204,205.960 209.155,204.933 209.154 C 203.907 209.153,203.454 209.200,203.927 209.259 M170.666 211.800 C 170.273 212.336,170.209 212.523,170.497 212.289 C 170.934 211.933,171.595 210.933,171.393 210.933 C 171.342 210.933,171.015 211.323,170.666 211.800 M181.490 211.161 C 181.413 211.287,181.644 211.333,182.005 211.264 C 182.474 211.175,182.931 211.377,183.613 211.975 C 184.554 212.802,184.574 212.806,185.341 212.353 C 185.768 212.101,186.071 211.849,186.015 211.793 C 185.959 211.737,185.605 211.892,185.229 212.139 C 184.563 212.575,184.524 212.565,183.719 211.760 C 182.932 210.973,181.796 210.668,181.490 211.161 M161.043 211.955 C 161.187 212.224,161.514 212.614,161.770 212.822 C 162.058 213.056,161.993 212.870,161.601 212.333 C 160.900 211.377,160.638 211.199,161.043 211.955 M181.576 212.489 C 181.720 212.757,182.047 213.147,182.303 213.355 C 182.591 213.589,182.527 213.403,182.134 212.867 C 181.434 211.910,181.171 211.732,181.576 212.489 M188.931 213.070 C 188.519 213.664,187.871 214.393,187.491 214.690 C 186.947 215.115,186.924 215.170,187.382 214.948 C 188.033 214.634,190.015 212.327,189.811 212.122 C 189.738 212.049,189.342 212.476,188.931 213.070 M165.487 213.044 C 165.645 213.211,166.425 213.399,167.220 213.463 C 168.462 213.562,168.515 213.549,167.600 213.371 C 167.013 213.257,166.233 213.069,165.867 212.952 C 165.372 212.795,165.274 212.819,165.487 213.044 M206.800 213.333 C 206.535 213.627,206.450 213.867,206.612 213.867 C 206.774 213.867,207.018 213.669,207.153 213.427 C 207.312 213.142,207.600 213.039,207.967 213.135 C 208.279 213.217,208.467 213.175,208.385 213.042 C 208.127 212.626,207.303 212.777,206.800 213.333 M173.067 213.950 C 173.067 213.996,173.457 214.386,173.933 214.817 L 174.800 215.600 174.017 214.733 C 173.287 213.925,173.067 213.744,173.067 213.950 M202.575 214.200 C 202.643 214.310,203.404 214.400,204.267 214.400 C 205.129 214.400,205.891 214.310,205.959 214.200 C 206.027 214.090,205.265 214.000,204.267 214.000 C 203.268 214.000,202.507 214.090,202.575 214.200 M164.533 215.354 C 164.533 215.534,165.919 216.037,166.051 215.905 C 166.111 215.844,165.794 215.667,165.347 215.511 C 164.899 215.355,164.533 215.284,164.533 215.354 M170.400 215.633 L 169.733 216.022 170.400 215.845 C 171.143 215.647,171.343 215.521,171.177 215.355 C 171.116 215.294,170.766 215.419,170.400 215.633 M167.133 216.193 C 167.610 216.252,168.390 216.252,168.867 216.193 C 169.343 216.134,168.953 216.085,168.000 216.085 C 167.047 216.085,166.657 216.134,167.133 216.193 " stroke="none" fill="#687f1c" fill-rule="evenodd"></path><path id="path4" d="M194.133 58.247 C 194.133 59.903,193.462 64.427,193.059 65.487 C 192.917 65.861,192.800 67.441,192.800 68.997 C 192.800 70.552,192.612 72.829,192.382 74.055 C 192.152 75.281,192.013 76.491,192.072 76.742 C 192.131 76.994,192.262 76.720,192.362 76.133 C 192.463 75.547,192.663 74.488,192.806 73.780 C 192.949 73.072,193.073 71.572,193.080 70.446 C 193.094 68.365,193.208 67.310,194.006 61.867 C 194.621 57.667,194.647 57.556,194.949 57.743 C 195.095 57.833,195.382 58.288,195.586 58.754 C 195.790 59.219,195.966 59.408,195.978 59.173 C 196.005 58.656,194.932 57.018,194.467 56.865 C 194.227 56.786,194.133 57.173,194.133 58.247 M195.657 65.133 C 195.569 67.223,195.591 69.353,195.705 69.867 C 195.837 70.457,195.930 69.059,195.961 66.067 C 196.018 60.364,195.875 59.926,195.657 65.133 M195.770 72.800 C 195.234 74.432,194.925 89.939,195.325 95.094 C 195.460 96.832,195.434 98.109,195.252 98.694 C 195.097 99.192,194.906 100.260,194.828 101.067 C 194.647 102.943,195.018 101.784,195.491 98.996 C 195.755 97.446,195.751 96.062,195.471 92.063 C 195.122 87.066,195.159 85.049,195.732 77.942 C 195.978 74.890,195.998 72.103,195.770 72.800 M127.671 77.328 C 128.963 77.634,130.568 78.797,131.460 80.072 C 133.415 82.868,134.039 83.539,135.698 84.627 C 136.671 85.264,138.052 86.014,138.766 86.293 C 139.925 86.745,142.133 88.572,142.133 89.079 C 142.133 89.530,144.099 90.186,145.034 90.046 C 146.364 89.846,147.650 90.531,148.704 92.000 C 150.349 94.293,151.607 95.540,152.800 96.065 C 155.154 97.099,155.250 97.178,155.695 98.450 C 156.146 99.736,160.940 104.533,161.774 104.533 C 161.972 104.533,162.133 104.645,162.133 104.782 C 162.133 104.919,162.352 105.100,162.620 105.185 C 162.887 105.270,163.365 105.581,163.681 105.875 C 163.998 106.170,164.649 106.470,165.128 106.542 L 166.000 106.674 165.181 106.337 C 163.687 105.722,159.708 102.859,158.789 101.738 C 158.291 101.130,157.579 100.469,157.206 100.270 C 156.754 100.028,156.342 99.397,155.969 98.374 C 155.518 97.136,155.249 96.778,154.572 96.514 C 151.579 95.346,151.330 95.149,149.443 92.468 C 147.865 90.225,146.665 89.441,145.280 89.745 C 144.095 90.005,142.795 89.412,141.748 88.133 C 141.019 87.244,140.130 86.640,138.060 85.628 C 135.066 84.165,133.911 83.158,132.166 80.491 C 130.964 78.654,128.741 77.043,127.478 77.094 C 126.887 77.118,126.912 77.148,127.671 77.328 M125.600 77.486 C 125.600 77.569,126.165 78.430,126.857 79.399 C 128.082 81.116,128.111 81.203,128.041 82.919 C 127.976 84.527,128.042 84.778,128.814 85.843 C 129.278 86.484,129.839 87.538,130.059 88.186 C 130.280 88.833,130.524 89.298,130.602 89.220 C 130.861 88.961,129.808 86.545,129.107 85.791 C 128.486 85.123,128.423 84.863,128.474 83.176 C 128.527 81.413,128.472 81.215,127.532 79.808 C 126.983 78.985,126.415 78.092,126.270 77.823 C 126.023 77.363,125.600 77.150,125.600 77.486 M191.600 79.400 C 191.505 80.243,191.257 81.464,191.048 82.112 C 190.839 82.760,190.725 83.347,190.795 83.417 C 190.864 83.486,190.993 83.316,191.082 83.038 C 191.171 82.761,191.350 82.266,191.480 81.938 C 191.770 81.212,192.133 77.867,191.923 77.867 C 191.840 77.867,191.694 78.557,191.600 79.400 M190.226 84.162 C 190.123 84.439,189.773 85.093,189.449 85.615 C 188.845 86.585,187.817 92.422,188.061 93.493 C 188.125 93.772,188.260 93.280,188.362 92.400 C 188.840 88.261,189.179 86.743,189.928 85.377 C 190.357 84.594,190.642 83.887,190.561 83.805 C 190.479 83.724,190.328 83.884,190.226 84.162 M264.533 86.146 C 263.873 86.417,263.549 86.644,263.813 86.652 C 264.077 86.660,264.663 86.475,265.115 86.242 C 267.097 85.217,266.427 90.398,264.191 93.383 C 263.378 94.469,262.663 95.856,262.677 96.320 C 262.683 96.511,262.919 96.203,263.202 95.637 C 263.485 95.070,264.088 94.027,264.543 93.318 C 266.229 90.690,267.187 86.761,266.347 85.920 C 265.966 85.539,266.040 85.530,264.533 86.146 M262.133 87.051 C 261.767 87.255,261.047 87.549,260.533 87.706 L 259.600 87.991 260.769 87.853 C 261.412 87.777,262.239 87.480,262.605 87.191 C 263.373 86.587,263.110 86.509,262.133 87.051 M257.498 89.067 C 256.861 89.653,256.114 90.135,255.837 90.137 C 255.560 90.140,255.153 90.258,254.933 90.400 C 254.457 90.708,255.217 90.733,256.157 90.440 C 256.836 90.229,259.400 88.000,258.965 88.000 C 258.794 88.000,258.134 88.480,257.498 89.067 M130.667 89.809 C 130.667 90.267,131.775 93.132,132.516 94.592 C 132.949 95.442,133.436 96.737,133.599 97.469 C 133.937 98.983,134.224 99.480,135.530 100.814 C 136.223 101.522,136.506 102.091,136.653 103.065 C 136.760 103.782,137.137 104.968,137.491 105.701 C 137.844 106.434,138.135 107.221,138.137 107.450 C 138.140 107.679,138.270 108.047,138.427 108.267 C 138.942 108.990,138.481 107.125,137.748 105.524 C 137.373 104.704,137.067 103.783,137.067 103.475 C 137.067 102.563,136.391 101.255,135.478 100.400 C 134.596 99.574,133.867 98.174,133.867 97.306 C 133.867 97.033,133.397 95.818,132.823 94.605 C 132.249 93.392,131.576 91.770,131.326 91.000 C 130.910 89.717,130.667 89.278,130.667 89.809 M252.887 91.294 C 252.350 91.741,251.402 92.052,249.593 92.375 C 248.196 92.624,246.876 92.940,246.660 93.076 C 246.102 93.429,246.576 93.387,248.267 92.933 C 249.073 92.717,250.153 92.535,250.667 92.530 C 251.262 92.523,252.126 92.185,253.054 91.593 C 253.854 91.084,254.313 90.667,254.075 90.667 C 253.836 90.667,253.302 90.949,252.887 91.294 M244.119 93.970 C 243.394 94.321,242.380 94.683,241.867 94.775 C 240.744 94.978,238.610 95.766,238.765 95.921 C 238.826 95.982,239.323 95.844,239.870 95.616 C 240.418 95.387,241.187 95.200,241.580 95.200 C 241.973 95.200,242.889 94.918,243.614 94.574 C 244.340 94.230,245.233 93.818,245.600 93.659 C 245.986 93.491,246.092 93.362,245.852 93.351 C 245.624 93.341,244.844 93.620,244.119 93.970 M187.590 95.400 C 187.352 96.817,186.662 98.922,186.114 99.899 C 184.896 102.071,183.999 105.471,184.038 107.765 L 184.076 110.000 184.285 107.333 C 184.460 105.096,184.671 104.238,185.599 102.000 C 186.207 100.533,186.920 98.779,187.184 98.100 C 187.674 96.839,188.143 94.400,187.895 94.400 C 187.819 94.400,187.682 94.850,187.590 95.400 M236.889 96.482 C 235.258 97.145,235.168 97.399,236.763 96.837 C 238.063 96.379,238.778 95.982,238.244 96.015 C 238.110 96.023,237.500 96.233,236.889 96.482 M262.227 97.228 C 262.125 97.506,261.582 98.133,261.020 98.621 C 260.459 99.109,260.005 99.709,260.011 99.954 C 260.018 100.261,260.139 100.184,260.399 99.705 C 260.607 99.323,261.078 98.813,261.446 98.572 C 262.160 98.104,262.807 97.118,262.561 96.872 C 262.479 96.791,262.329 96.951,262.227 97.228 M234.400 97.715 C 234.033 97.918,233.194 98.228,232.534 98.405 C 231.740 98.619,231.063 99.044,230.534 99.661 C 228.708 101.789,227.483 102.866,225.537 104.054 C 223.225 105.465,221.415 107.657,220.335 110.353 C 220.002 111.186,219.274 112.467,218.719 113.201 C 218.163 113.934,217.491 114.901,217.226 115.350 C 216.812 116.051,215.662 116.970,213.909 118.000 C 213.660 118.147,213.080 118.537,212.620 118.867 C 212.160 119.197,211.660 119.467,211.508 119.467 C 211.356 119.467,211.145 119.607,211.039 119.779 C 210.708 120.314,211.620 119.833,214.360 118.026 C 217.034 116.263,220.134 112.468,220.634 110.348 C 220.979 108.880,224.354 104.553,225.164 104.538 C 225.768 104.526,229.103 102.004,229.620 101.168 C 230.484 99.769,231.468 98.955,232.667 98.648 C 234.230 98.248,235.200 97.834,235.200 97.568 C 235.200 97.273,235.202 97.273,234.400 97.715 M259.598 101.158 C 259.194 102.678,258.462 103.795,256.389 106.055 C 254.441 108.177,253.614 109.561,253.604 110.718 C 253.598 111.404,250.092 118.133,249.741 118.133 C 249.338 118.133,247.858 119.681,248.065 119.887 C 248.152 119.974,248.357 119.797,248.520 119.492 C 248.683 119.188,249.170 118.756,249.602 118.532 C 250.114 118.268,250.686 117.543,251.237 116.463 C 253.250 112.513,253.867 111.194,253.867 110.842 C 253.867 109.887,254.778 108.045,255.676 107.186 C 258.158 104.812,260.250 101.619,259.916 100.715 C 259.852 100.542,259.709 100.741,259.598 101.158 M194.301 103.533 C 194.213 103.863,194.137 104.793,194.132 105.600 C 194.127 106.407,193.948 108.687,193.733 110.667 C 193.307 114.605,193.263 115.359,193.471 115.151 C 193.698 114.924,194.782 102.933,194.576 102.933 C 194.513 102.933,194.390 103.203,194.301 103.533 M166.977 107.622 C 167.466 108.147,168.213 108.939,168.636 109.381 C 169.058 109.823,169.792 111.103,170.266 112.226 C 170.739 113.348,171.503 115.072,171.963 116.056 C 172.423 117.039,172.808 118.119,172.819 118.456 C 172.847 119.391,173.289 120.345,173.315 119.527 C 173.395 116.915,168.357 107.537,166.488 106.819 C 166.267 106.735,166.488 107.096,166.977 107.622 M138.863 110.562 C 138.996 112.294,139.592 114.097,139.922 113.766 C 140.005 113.684,139.876 113.317,139.636 112.951 C 139.373 112.550,139.198 111.725,139.196 110.876 C 139.194 110.101,139.086 109.300,138.957 109.096 C 138.816 108.872,138.778 109.456,138.863 110.562 M140.000 114.234 C 140.000 114.290,140.180 114.766,140.400 115.292 C 140.620 115.819,140.800 116.645,140.800 117.127 C 140.800 117.812,141.094 118.322,142.133 119.440 C 142.867 120.230,143.467 120.984,143.467 121.117 C 143.467 121.657,145.395 124.253,147.192 126.133 C 148.244 127.233,149.741 129.100,150.520 130.283 C 151.733 132.123,155.200 135.973,155.200 135.479 C 155.200 135.388,154.588 134.718,153.840 133.990 C 153.092 133.262,151.767 131.613,150.895 130.325 C 150.022 129.037,148.612 127.237,147.760 126.325 C 145.469 123.871,144.708 122.915,144.125 121.762 C 143.836 121.191,143.030 120.094,142.333 119.324 C 141.332 118.218,141.067 117.731,141.067 116.995 C 141.067 116.122,140.415 114.133,140.130 114.133 C 140.058 114.133,140.000 114.179,140.000 114.234 M184.105 118.133 C 184.105 120.113,184.187 121.373,184.287 120.933 C 184.528 119.882,184.531 116.049,184.293 115.200 C 184.190 114.833,184.105 116.153,184.105 118.133 M192.967 116.567 C 192.875 117.025,192.798 118.735,192.795 120.367 C 192.793 121.998,192.615 124.165,192.399 125.182 C 192.043 126.864,192.016 127.929,192.360 126.753 C 192.854 125.066,193.565 115.733,193.200 115.733 C 193.163 115.733,193.058 116.108,192.967 116.567 M209.038 120.867 C 207.860 121.766,205.345 125.165,205.340 125.867 C 205.338 126.087,205.809 125.487,206.388 124.533 C 207.681 122.401,208.377 121.615,209.667 120.831 C 210.217 120.497,210.667 120.173,210.667 120.112 C 210.667 119.805,210.063 120.085,209.038 120.867 M173.354 120.555 C 173.325 121.145,174.429 124.593,174.594 124.428 C 174.669 124.354,174.539 123.717,174.306 123.013 C 174.073 122.309,173.769 121.373,173.629 120.933 C 173.490 120.493,173.366 120.323,173.354 120.555 M247.644 120.444 C 247.547 120.542,247.467 120.794,247.467 121.004 C 247.467 121.214,246.987 122.382,246.400 123.600 C 245.813 124.818,245.332 125.916,245.331 126.040 C 245.330 126.165,244.940 126.687,244.464 127.200 C 243.479 128.263,243.038 129.091,242.795 130.330 C 242.702 130.805,242.364 131.405,242.045 131.663 C 241.726 131.922,241.317 132.493,241.136 132.933 C 240.876 133.569,240.876 133.631,241.138 133.234 C 241.319 132.959,241.857 132.257,242.333 131.675 C 242.810 131.093,243.200 130.309,243.200 129.933 C 243.200 129.304,243.942 128.105,245.136 126.805 C 245.402 126.515,245.696 125.978,245.787 125.613 C 245.879 125.248,246.204 124.526,246.510 124.008 C 247.422 122.465,248.262 119.827,247.644 120.444 M184.000 124.508 C 184.000 124.634,184.252 124.804,184.560 124.884 C 185.094 125.024,185.111 125.140,184.938 127.515 C 184.832 128.967,184.865 130.277,185.016 130.667 C 185.209 131.161,185.282 130.497,185.297 128.106 C 185.317 124.924,185.308 124.874,184.659 124.578 C 184.296 124.413,184.000 124.382,184.000 124.508 M174.830 125.733 C 174.937 126.320,174.996 127.760,174.962 128.933 C 174.906 130.885,174.980 131.237,175.841 133.067 C 176.986 135.503,177.106 135.321,176.007 132.816 C 175.283 131.166,175.219 130.779,175.269 128.371 C 175.306 126.588,175.212 125.560,174.980 125.200 C 174.680 124.735,174.661 124.803,174.830 125.733 M205.084 126.533 C 205.070 126.680,204.820 127.928,204.529 129.307 C 204.238 130.686,204.016 132.306,204.035 132.907 C 204.062 133.737,204.149 133.487,204.400 131.867 C 204.582 130.693,204.876 129.103,205.054 128.333 C 205.232 127.563,205.317 126.783,205.243 126.600 C 205.169 126.417,205.097 126.387,205.084 126.533 M191.801 128.933 C 191.804 129.520,191.858 129.729,191.922 129.397 C 191.986 129.065,191.983 128.585,191.917 128.330 C 191.850 128.075,191.798 128.347,191.801 128.933 M192.083 132.400 C 192.084 133.280,192.134 133.608,192.193 133.129 C 192.253 132.649,192.251 131.929,192.191 131.529 C 192.130 131.128,192.081 131.520,192.083 132.400 M185.356 132.267 C 185.348 132.633,185.458 133.113,185.600 133.333 C 185.939 133.858,185.939 132.923,185.600 132.133 C 185.390 131.645,185.370 131.656,185.356 132.267 M186.048 135.333 C 186.135 135.920,186.304 136.580,186.425 136.800 C 186.550 137.030,186.576 136.745,186.486 136.133 C 186.399 135.547,186.229 134.887,186.109 134.667 C 185.983 134.437,185.957 134.721,186.048 135.333 M202.819 137.486 C 202.721 137.877,202.692 138.248,202.755 138.311 C 202.818 138.373,202.950 138.105,203.048 137.714 C 203.146 137.323,203.175 136.952,203.112 136.889 C 203.049 136.827,202.917 137.095,202.819 137.486 M155.733 137.683 C 155.733 137.729,156.123 138.119,156.600 138.550 L 157.467 139.333 156.683 138.467 C 155.953 137.659,155.733 137.477,155.733 137.683 M177.386 138.000 C 177.386 138.293,177.483 138.833,177.600 139.200 C 177.769 139.728,177.814 139.756,177.814 139.333 C 177.814 139.040,177.717 138.500,177.600 138.133 C 177.431 137.605,177.386 137.578,177.386 138.000 M187.816 140.133 C 187.817 141.013,187.867 141.341,187.927 140.862 C 187.986 140.383,187.985 139.663,187.924 139.262 C 187.863 138.861,187.814 139.253,187.816 140.133 M191.847 144.667 C 191.847 147.893,191.886 149.177,191.933 147.519 C 191.979 145.860,191.979 143.220,191.932 141.652 C 191.885 140.083,191.847 141.440,191.847 144.667 M178.137 140.956 C 178.139 141.090,178.571 141.680,179.096 142.267 L 180.051 143.333 179.174 142.133 C 178.692 141.473,178.260 140.883,178.215 140.822 C 178.170 140.761,178.135 140.821,178.137 140.956 M235.085 142.385 C 234.361 143.214,233.719 144.066,233.657 144.279 C 233.595 144.492,233.755 144.367,234.012 144.000 C 234.269 143.633,234.964 142.826,235.556 142.206 C 236.149 141.585,236.581 141.033,236.517 140.979 C 236.453 140.924,235.808 141.557,235.085 142.385 M201.500 142.010 C 201.408 142.249,201.344 142.644,201.356 142.888 C 201.369 143.133,201.485 142.979,201.614 142.547 C 201.865 141.705,201.777 141.289,201.500 142.010 M181.486 146.667 C 181.584 147.033,181.776 147.513,181.912 147.733 C 182.083 148.011,182.104 147.930,181.980 147.467 C 181.882 147.100,181.691 146.620,181.555 146.400 C 181.383 146.122,181.362 146.203,181.486 146.667 M231.525 146.867 C 230.887 147.490,230.876 147.521,231.454 147.071 C 232.592 146.184,232.646 146.133,232.458 146.133 C 232.357 146.133,231.937 146.463,231.525 146.867 M200.840 146.978 C 200.818 147.370,200.731 147.910,200.647 148.178 C 200.501 148.640,200.510 148.641,200.797 148.193 C 200.964 147.933,201.051 147.393,200.990 146.993 L 200.880 146.267 200.840 146.978 M162.933 147.564 C 162.933 147.637,163.293 147.953,163.733 148.267 C 164.173 148.580,164.533 148.776,164.533 148.703 C 164.533 148.630,164.173 148.313,163.733 148.000 C 163.293 147.687,162.933 147.490,162.933 147.564 M164.800 148.889 C 164.800 148.962,165.280 149.402,165.867 149.867 C 166.453 150.331,166.933 150.651,166.933 150.578 C 166.933 150.505,166.453 150.065,165.867 149.600 C 165.280 149.135,164.800 148.815,164.800 148.889 M229.233 150.467 C 228.713 151.491,228.665 151.688,229.053 151.200 C 229.530 150.601,230.228 149.067,230.024 149.067 C 229.979 149.067,229.623 149.697,229.233 150.467 M187.454 151.126 C 187.380 151.746,187.422 152.151,187.546 152.027 C 187.671 151.903,187.730 151.396,187.679 150.901 C 187.589 150.022,187.583 150.028,187.454 151.126 M182.971 151.623 C 183.127 152.197,183.317 152.727,183.392 152.800 C 183.627 153.029,183.156 151.080,182.915 150.823 C 182.789 150.688,182.814 151.048,182.971 151.623 M199.733 150.735 C 199.733 150.773,199.615 151.215,199.471 151.717 C 199.327 152.220,199.312 152.519,199.437 152.382 C 199.710 152.084,200.069 150.667,199.872 150.667 C 199.796 150.667,199.733 150.697,199.733 150.735 M228.166 152.410 C 228.075 152.649,228.014 153.164,228.031 153.555 C 228.054 154.088,228.114 153.999,228.269 153.200 C 228.490 152.067,228.441 151.693,228.166 152.410 M170.764 153.353 C 171.150 153.657,171.476 154.107,171.488 154.353 C 171.502 154.659,171.553 154.689,171.650 154.448 C 171.797 154.080,170.762 152.800,170.318 152.800 C 170.177 152.800,170.378 153.049,170.764 153.353 M183.512 154.267 C 183.508 154.560,183.607 155.040,183.733 155.333 C 184.025 156.013,184.025 155.312,183.733 154.400 C 183.562 153.864,183.518 153.838,183.512 154.267 M198.163 154.696 C 197.999 155.168,197.911 155.600,197.968 155.657 C 198.025 155.714,198.206 155.375,198.370 154.904 C 198.535 154.432,198.622 154.000,198.565 153.943 C 198.508 153.886,198.327 154.225,198.163 154.696 M226.523 155.800 L 225.200 157.200 226.600 155.877 C 227.901 154.647,228.122 154.400,227.923 154.400 C 227.881 154.400,227.251 155.030,226.523 155.800 M186.785 157.638 C 186.793 158.905,186.888 159.805,186.996 159.638 C 187.232 159.271,187.208 157.241,186.953 156.133 C 186.841 155.646,186.776 156.233,186.785 157.638 M173.056 156.867 C 173.709 157.563,174.279 158.133,174.322 158.133 C 174.522 158.133,174.311 157.894,173.133 156.789 L 171.867 155.600 173.056 156.867 M225.046 158.200 C 224.966 158.773,225.007 159.100,225.141 158.966 C 225.270 158.837,225.332 158.387,225.280 157.966 C 225.192 157.261,225.173 157.279,225.046 158.200 M196.845 158.386 C 196.689 158.834,196.618 159.200,196.687 159.200 C 196.867 159.200,197.370 157.815,197.238 157.683 C 197.178 157.622,197.001 157.939,196.845 158.386 M175.067 158.400 C 175.360 158.526,175.780 158.629,176.000 158.629 C 176.252 158.629,176.203 158.544,175.867 158.400 C 175.573 158.274,175.153 158.171,174.933 158.171 C 174.681 158.171,174.730 158.256,175.067 158.400 M184.801 158.580 C 184.800 159.019,186.116 160.535,186.490 160.525 C 186.661 160.521,186.582 160.390,186.315 160.235 C 186.049 160.080,185.599 159.574,185.316 159.110 C 185.033 158.646,184.802 158.407,184.801 158.580 M179.350 160.329 C 180.209 161.274,180.578 161.590,180.835 161.596 C 180.928 161.598,180.524 161.120,179.937 160.533 C 178.660 159.256,178.244 159.111,179.350 160.329 M223.902 160.333 L 223.422 161.200 223.972 160.533 C 224.459 159.942,224.676 159.467,224.457 159.467 C 224.416 159.467,224.166 159.857,223.902 160.333 M189.442 164.667 C 189.442 167.160,189.482 168.216,189.532 167.013 C 189.581 165.810,189.581 163.770,189.532 162.480 C 189.483 161.189,189.443 162.173,189.442 164.667 M195.496 162.163 C 195.332 162.634,195.244 163.066,195.301 163.124 C 195.358 163.181,195.539 162.842,195.704 162.370 C 195.868 161.899,195.956 161.467,195.899 161.410 C 195.842 161.353,195.661 161.692,195.496 162.163 M181.999 161.787 C 182.439 161.857,182.898 162.054,183.019 162.224 C 183.169 162.433,183.206 162.403,183.133 162.133 C 183.067 161.887,182.675 161.719,182.113 161.696 C 181.277 161.661,181.267 161.669,181.999 161.787 M221.586 163.133 L 220.667 164.133 221.667 163.214 C 222.597 162.359,222.789 162.133,222.586 162.133 C 222.541 162.133,222.091 162.583,221.586 163.133 M220.104 164.381 C 220.024 164.590,220.003 165.040,220.057 165.381 C 220.130 165.836,220.192 165.736,220.291 165.000 C 220.431 163.965,220.357 163.721,220.104 164.381 M194.170 167.378 C 194.150 167.696,194.064 168.176,193.980 168.445 C 193.835 168.907,193.843 168.908,194.131 168.459 C 194.298 168.198,194.384 167.718,194.321 167.392 C 194.206 166.801,194.206 166.801,194.170 167.378 M214.933 169.388 C 214.127 170.141,213.707 170.625,214.000 170.466 C 214.513 170.187,216.768 167.989,216.521 168.010 C 216.454 168.016,215.740 168.636,214.933 169.388 M193.512 170.371 C 193.414 170.864,193.347 171.642,193.365 172.100 C 193.386 172.675,193.470 172.483,193.636 171.482 C 193.902 169.880,193.798 168.945,193.512 170.371 M189.428 172.133 C 189.427 173.453,189.472 174.027,189.528 173.408 C 189.584 172.789,189.585 171.709,189.530 171.008 C 189.475 170.307,189.429 170.813,189.428 172.133 M185.396 170.800 C 185.396 171.240,185.488 171.960,185.600 172.400 C 185.882 173.509,185.895 172.417,185.615 171.067 C 185.430 170.170,185.395 170.127,185.396 170.800 M211.959 171.629 C 210.511 172.832,210.402 172.946,211.067 172.572 C 211.724 172.202,213.509 170.667,213.282 170.667 C 213.191 170.667,212.596 171.100,211.959 171.629 M208.400 174.033 C 207.921 174.441,207.822 174.604,208.155 174.438 C 208.644 174.195,209.561 173.318,209.299 173.343 C 209.245 173.348,208.840 173.659,208.400 174.033 M189.662 175.733 C 189.662 176.247,189.717 176.457,189.784 176.200 C 189.851 175.943,189.851 175.523,189.784 175.267 C 189.717 175.010,189.662 175.220,189.662 175.733 M193.134 176.400 C 193.137 176.987,193.191 177.195,193.255 176.864 C 193.319 176.532,193.317 176.052,193.250 175.797 C 193.183 175.542,193.131 175.813,193.134 176.400 M186.227 178.133 C 186.227 179.380,186.272 179.890,186.329 179.267 C 186.385 178.643,186.385 177.623,186.329 177.000 C 186.272 176.377,186.227 176.887,186.227 178.133 M190.186 178.267 C 190.186 178.560,190.283 179.100,190.400 179.467 C 190.569 179.995,190.614 180.022,190.614 179.600 C 190.614 179.307,190.517 178.767,190.400 178.400 C 190.231 177.872,190.186 177.844,190.186 178.267 M192.152 181.219 C 192.054 181.610,192.025 181.981,192.088 182.044 C 192.151 182.107,192.283 181.838,192.381 181.448 C 192.479 181.057,192.508 180.686,192.445 180.623 C 192.382 180.560,192.250 180.828,192.152 181.219 M186.497 183.333 C 186.498 184.800,186.543 185.366,186.597 184.591 C 186.651 183.816,186.650 182.616,186.596 181.924 C 186.541 181.233,186.497 181.867,186.497 183.333 M198.404 181.996 C 197.908 182.507,197.555 182.966,197.618 183.017 C 197.682 183.067,198.137 182.648,198.631 182.087 C 199.753 180.812,199.608 180.754,198.404 181.996 M193.333 187.000 C 192.940 187.536,192.876 187.723,193.164 187.489 C 193.601 187.133,194.262 186.133,194.060 186.133 C 194.009 186.133,193.681 186.523,193.333 187.000 M191.100 191.077 C 191.008 191.315,190.947 191.830,190.964 192.222 C 190.987 192.755,191.047 192.666,191.203 191.867 C 191.423 190.733,191.375 190.360,191.100 191.077 M190.739 194.133 C 190.739 194.793,190.791 195.063,190.855 194.733 C 190.918 194.403,190.918 193.863,190.855 193.533 C 190.791 193.203,190.739 193.473,190.739 194.133 M189.934 197.733 C 189.937 198.320,189.991 198.529,190.055 198.197 C 190.119 197.865,190.117 197.385,190.050 197.130 C 189.983 196.875,189.931 197.147,189.934 197.733 M168.086 201.800 C 173.781 201.840,183.021 201.840,188.620 201.800 C 194.219 201.760,189.560 201.727,178.267 201.727 C 166.973 201.727,162.392 201.760,168.086 201.800 M207.933 201.798 C 216.492 201.871,216.800 201.892,216.800 202.389 C 216.800 202.814,216.579 202.918,215.533 202.985 L 214.267 203.067 214.133 210.867 C 214.060 215.157,214.090 218.667,214.200 218.667 C 214.310 218.667,214.400 215.193,214.400 210.948 L 214.400 203.229 215.667 203.148 C 216.818 203.074,216.933 203.006,216.933 202.400 L 216.933 201.733 208.000 201.728 L 199.067 201.722 207.933 201.798 M157.423 202.400 L 157.467 203.067 166.267 203.072 L 175.067 203.078 166.351 203.002 L 157.636 202.926 157.508 202.330 C 157.396 201.810,157.385 201.820,157.423 202.400 M177.728 203.267 C 177.516 203.846,177.457 218.667,177.667 218.667 C 177.777 218.667,177.867 215.178,177.867 210.914 L 177.867 203.161 180.109 203.247 C 181.342 203.295,182.295 203.243,182.226 203.133 C 182.004 202.776,177.863 202.899,177.728 203.267 M186.325 203.098 C 186.226 203.196,186.511 203.693,186.957 204.201 C 187.861 205.231,188.267 206.119,188.267 207.068 C 188.267 207.838,188.733 208.183,189.157 207.724 C 189.394 207.468,189.390 207.432,189.141 207.572 C 188.930 207.691,188.758 207.493,188.653 207.011 C 188.357 205.658,187.935 204.787,187.189 203.988 L 186.453 203.200 189.893 203.200 L 193.333 203.200 193.333 205.200 C 193.333 207.263,193.170 207.587,192.595 206.667 C 192.258 206.127,190.581 205.892,190.301 206.344 C 190.229 206.460,190.555 206.510,191.024 206.456 C 191.637 206.384,192.019 206.512,192.380 206.911 C 193.375 208.011,193.628 207.653,193.544 205.267 L 193.467 203.067 189.985 202.993 C 188.070 202.952,186.423 202.999,186.325 203.098 M195.941 210.775 C 195.900 215.088,195.957 218.560,196.067 218.492 C 196.177 218.424,196.267 214.961,196.267 210.796 L 196.267 203.223 198.200 203.131 L 200.133 203.039 198.074 202.986 L 196.016 202.933 195.941 210.775 M204.674 203.189 C 204.587 203.329,204.876 203.630,205.317 203.858 C 207.147 204.805,208.348 206.945,208.236 209.061 C 208.169 210.323,211.005 214.240,211.574 213.671 C 211.809 213.436,211.768 213.014,211.525 213.164 C 210.794 213.615,208.533 210.439,208.533 208.961 C 208.533 206.569,206.701 203.631,205.073 203.412 C 204.849 203.382,206.227 203.287,208.133 203.200 L 211.600 203.042 208.216 202.988 C 206.284 202.957,204.764 203.043,204.674 203.189 M167.533 204.450 C 167.790 204.518,168.210 204.518,168.467 204.450 C 168.723 204.383,168.513 204.329,168.000 204.329 C 167.487 204.329,167.277 204.383,167.533 204.450 M159.744 204.636 C 159.738 204.765,159.874 205.365,160.045 205.969 C 160.414 207.268,160.933 207.991,160.642 206.800 C 160.414 205.869,159.759 204.290,159.744 204.636 M171.467 205.484 C 171.467 205.568,171.751 206.018,172.099 206.484 C 172.447 206.951,172.858 207.693,173.012 208.133 C 173.226 208.748,173.296 208.805,173.312 208.379 C 173.324 208.074,172.962 207.264,172.508 206.579 C 171.733 205.408,171.467 205.129,171.467 205.484 M169.024 205.800 C 168.862 206.564,168.947 209.007,169.132 208.893 C 169.258 208.815,169.325 208.043,169.281 207.176 C 169.206 205.717,169.129 205.305,169.024 205.800 M160.800 208.013 C 160.800 208.998,164.056 212.803,165.200 213.154 L 165.733 213.318 165.200 212.993 C 164.091 212.315,162.059 210.034,161.561 208.906 C 161.051 207.754,160.800 207.459,160.800 208.013 M206.688 208.711 C 206.676 209.029,206.517 209.349,206.333 209.423 C 206.072 209.529,206.074 209.562,206.342 209.579 C 206.746 209.604,207.041 208.960,206.846 208.475 C 206.771 208.287,206.699 208.393,206.688 208.711 M191.290 209.133 C 190.995 209.463,190.110 210.723,189.324 211.933 C 188.537 213.143,187.797 214.133,187.680 214.133 C 187.563 214.133,187.467 214.268,187.467 214.433 C 187.467 215.017,188.272 214.066,190.121 211.297 C 191.135 209.777,191.934 208.533,191.896 208.533 C 191.858 208.533,191.585 208.803,191.290 209.133 M173.073 210.964 C 173.067 211.385,173.975 212.739,174.524 213.129 C 175.148 213.572,175.221 213.293,174.608 212.811 C 174.243 212.524,173.749 211.894,173.511 211.411 C 173.273 210.928,173.076 210.727,173.073 210.964 M193.434 213.867 C 193.434 215.553,193.477 216.243,193.530 215.400 C 193.583 214.557,193.583 213.177,193.530 212.333 C 193.477 211.490,193.434 212.180,193.434 213.867 M182.667 211.271 C 182.667 211.563,184.007 212.800,184.323 212.800 C 184.488 212.800,184.572 212.770,184.510 212.733 C 184.448 212.697,184.008 212.314,183.532 211.883 C 183.056 211.453,182.667 211.177,182.667 211.271 M207.053 212.822 C 206.955 212.980,206.498 213.340,206.038 213.621 C 205.577 213.902,205.333 214.132,205.497 214.132 C 205.660 214.133,206.246 213.773,206.800 213.333 C 207.354 212.893,207.677 212.533,207.519 212.533 C 207.361 212.533,207.151 212.663,207.053 212.822 M166.492 213.663 C 166.661 213.770,167.160 213.858,167.600 213.858 C 168.040 213.858,168.539 213.770,168.708 213.663 C 168.877 213.555,168.379 213.467,167.600 213.467 C 166.821 213.467,166.323 213.555,166.492 213.663 M171.504 214.533 C 171.019 215.047,170.682 215.467,170.753 215.467 C 170.824 215.467,171.386 215.047,172.000 214.533 C 172.614 214.020,172.952 213.600,172.751 213.600 C 172.549 213.600,171.988 214.020,171.504 214.533 M185.600 214.933 L 184.400 215.120 185.651 215.160 C 186.339 215.182,186.976 215.080,187.067 214.933 C 187.157 214.787,187.134 214.685,187.016 214.707 C 186.897 214.729,186.260 214.831,185.600 214.933 " stroke="none" fill="#dfbf65" fill-rule="evenodd"></path></g></svg>