<?xml version="1.0" encoding="UTF-8" standalone="no"?>
<!-- Created with Inkscape (http://www.inkscape.org/) -->
<svg
   xmlns:dc="http://purl.org/dc/elements/1.1/"
   xmlns:cc="http://creativecommons.org/ns#"
   xmlns:rdf="http://www.w3.org/1999/02/22-rdf-syntax-ns#"
   xmlns:svg="http://www.w3.org/2000/svg"
   xmlns="http://www.w3.org/2000/svg"
   xmlns:sodipodi="http://sodipodi.sourceforge.net/DTD/sodipodi-0.dtd"
   xmlns:inkscape="http://www.inkscape.org/namespaces/inkscape"
   width="900"
   height="600"
   id="svg2391"
   sodipodi:version="0.32"
   inkscape:version="0.46"
   version="1.0"
   sodipodi:docname="Flag_of_Ciskei2.svg"
   inkscape:output_extension="org.inkscape.output.svg.inkscape">
  <defs
     id="defs2393">
    <clipPath
       id="f">
      <rect
         width="450"
         height="300"
         id="rect5"
         x="0"
         y="0" />
    </clipPath>
    <inkscape:perspective
       sodipodi:type="inkscape:persp3d"
       inkscape:vp_x="0 : 526.18109 : 1"
       inkscape:vp_y="0 : 1000 : 0"
       inkscape:vp_z="744.09448 : 526.18109 : 1"
       inkscape:persp3d-origin="372.04724 : 350.78739 : 1"
       id="perspective2399" />
  </defs>
  <sodipodi:namedview
     id="base"
     pagecolor="#ffffff"
     bordercolor="#666666"
     borderopacity="1.0"
     inkscape:pageopacity="0.0"
     inkscape:pageshadow="2"
     inkscape:zoom="0.35"
     inkscape:cx="375"
     inkscape:cy="520"
     inkscape:document-units="px"
     inkscape:current-layer="layer1"
     showgrid="false"
     inkscape:window-width="640"
     inkscape:window-height="669"
     inkscape:window-x="23"
     inkscape:window-y="23" />
  <metadata
     id="metadata2396">
    <rdf:RDF>
      <cc:Work
         rdf:about="">
        <dc:format>image/svg+xml</dc:format>
        <dc:type
           rdf:resource="http://purl.org/dc/dcmitype/StillImage" />
      </cc:Work>
    </rdf:RDF>
  </metadata>
  <g
     inkscape:label="Livello 1"
     inkscape:groupmode="layer"
     id="layer1"
     transform="translate(75,-232.36218)">
    <g
       transform="matrix(2,0,0,2,-75,232.36218)"
       clip-path="url(#f)"
       id="g7"
       style="fill:#87aade">
      <rect
         width="450"
         height="300"
         id="rect9"
         x="0"
         y="0"
         style="fill:#87aade" />
      <path
         d="M 0,300 L 450,0"
         id="path11"
         style="fill:#87aade;stroke:#ffffff;stroke-width:75" />
    </g>
    <path
       d="M 346.61234,450.9042 C 346.22672,453.50444 345.93328,455.0005 344.20748,456.523 C 342.33184,458.601 308.15254,486.18088 312.08596,519.15206 C 312.35352,523.3536 316.2482,522.75256 316.9078,521.56354 C 317.1436,526.05812 316.84924,533.8477 323.33074,531.99832 C 325.2453,537.14174 329.74122,538.9435 337.77774,538.42164 C 337.8363,541.94922 340.82898,541.94922 344.20748,540.82538 C 346.82774,544.94208 355.5248,553.63308 362.67366,554.48144 C 365.4175,559.33086 372.00936,568.32192 373.91088,570.542 C 375.00864,572.51722 375.61062,576.72498 374.71522,581.7815 C 373.8198,586.31614 368.1158,609.40804 365.88098,613.90338 C 363.91426,618.39984 362.43106,620.188 356.25034,620.31838 C 352.52552,620.188 349.2381,624.3833 348.22026,626.73528 C 347.42876,628.13384 348.78104,629.33626 349.82702,627.54698 C 351.48614,625.4293 352.67592,623.93928 354.64244,623.5342 C 354.47882,625.4293 354.92282,627.67658 354.64244,629.15412 C 353.87778,630.23904 352.67592,631.88474 353.83886,632.35444 C 355.38082,632.48482 356.41926,630.98424 356.25034,629.15412 C 356.72666,627.67658 356.87726,623.93928 361.06538,623.5342 C 362.5618,623.49566 364.3715,621.99242 368.29208,623.5342 C 371.57214,624.3833 376.3558,625.28646 376.32974,629.15412 C 376.3558,631.12708 376.3558,632.32838 377.1267,632.35444 C 378.15794,632.02758 378.3159,630.83874 377.92404,629.15412 C 378.3159,628.13384 377.71394,625.28646 375.51954,624.33154 C 373.51258,623.18126 371.26436,622.43606 370.70338,621.92704 C 370.06928,621.24722 369.3241,619.88722 370.70338,618.7116 C 371.40946,617.79788 373.21898,614.94748 372.3041,613.09394 C 371.11508,611.0541 371.11508,608.65 372.3041,605.068 C 373.21898,601.44974 377.11384,587.66104 377.92404,584.99768 C 378.3159,581.65188 379.3619,579.27156 381.13758,578.56568 C 382.96732,578.05666 384.60244,573.41734 382.74398,571.34086 C 381.6092,568.63406 378.3159,565.77346 378.73348,556.88782 C 380.1067,558.88684 383.0992,561.57816 384.3534,562.51834 C 384.91418,563.66824 384.91418,565.17148 382.74398,566.51826 C 381.32162,567.56426 362.41802,578.51316 354.64244,581.7815 C 349.0754,584.8129 345.6389,589.46468 339.38564,593.0206 C 333.64818,596.3513 335.29614,600.2473 333.76608,601.85408 C 331.98888,603.83988 332.73426,605.20026 333.76608,605.86496 C 333.94256,607.76008 335.58938,608.65 336.17756,605.86496 C 336.19022,603.83988 336.93504,599.65856 339.38564,597.82846 C 340.53554,598.90052 341.73118,598.90052 341.79694,603.46122 C 341.28716,605.20026 343.53408,605.48784 343.4037,603.46122 C 343.53408,601.59258 344.13606,597.99926 341.79694,597.03186 C 343.22724,595.45078 345.3313,593.65998 346.61234,594.62738 C 348.32418,596.3513 348.63158,596.3513 349.02364,597.82846 C 348.63158,599.05658 350.73452,599.20132 350.63042,597.82846 C 350.73452,595.8948 351.0289,593.0599 349.02364,592.20852 C 351.32364,590.65352 353.42754,586.903 357.05374,584.99768 C 360.02072,582.72356 378.45912,572.37174 381.13758,571.34086 C 384.4577,569.66682 387.4634,568.76556 389.97334,568.93524 C 392.84678,568.47798 394.49474,564.73994 392.3767,561.70852 C 390.31078,559.33086 386.54704,555.43674 386.75676,554.48144 C 386.54704,553.03112 385.81734,548.9813 383.54322,548.86226 C 382.0532,549.29494 379.07356,549.43778 377.1267,548.86226 C 376.51188,550.33906 376.06786,551.98702 376.32974,553.68486 C 375.00864,552.72994 372.46736,550.94102 372.3041,549.65924 C 369.91284,550.48454 364.45048,549.65924 361.06538,546.4453 C 358.37368,543.59528 352.34244,536.02886 350.63042,532.8017 C 354.47882,533.99092 358.22972,532.64488 359.45746,531.19492 C 361.52356,532.49448 366.01814,531.89346 367.4887,530.39816 C 369.1616,530.99804 373.21898,531.30566 375.51954,529.59382 C 376.9559,530.99804 379.07356,531.89346 380.3274,531.19492 C 383.85762,533.69654 390.59912,539.98948 393.18688,547.2555 C 395.6968,554.97722 396.89924,576.26586 396.4008,589.80478 C 396.58484,592.00068 398.40172,592.00068 399.60378,589.80478 C 400.19064,588.10694 400.94792,587.50496 402.01998,586.59124 C 402.75234,585.41488 404.68598,584.65722 405.22296,588.21124 C 405.58912,592.15676 409.94012,605.3431 416.47528,610.68794 C 414.74986,605.48784 410.08296,593.80472 410.85384,587.40142 C 410.82776,584.5121 411.74414,584.65722 413.25984,586.59124 C 414.74986,588.86536 426.27464,606.84634 435.73654,612.28148 C 438.71618,613.3014 438.71618,611.34168 437.34332,609.87774 C 436.32568,608.04764 419.84528,591.55666 414.0568,578.56568 C 409.03924,564.8703 398.84536,522.15134 388.36656,517.5451 C 386.10566,517.7996 384.4577,517.50636 383.54322,516.74208 C 381.16366,518.1074 376.3558,517.96322 373.1075,515.14042 C 370.82052,515.85916 367.51478,517.65582 365.07722,511.92554 C 363.91426,510.612 362.86828,511.36362 363.47706,512.72892 C 364.07808,513.76188 365.26692,516.46698 363.47706,516.74208 C 361.06538,517.36238 358.0661,513.30502 356.25034,511.12216 C 355.38082,509.7166 353.87778,509.8672 354.64244,511.12216 C 355.98166,513.16086 358.37368,516.61078 356.25034,517.5451 C 354.77318,518.1074 353.87778,516.46698 353.03414,515.14042 C 352.07488,514.3631 350.88606,514.65634 351.42738,515.944 C 352.38268,517.05478 352.67592,518.2578 351.42738,518.34886 C 350.57204,518.85862 347.57936,517.36238 346.61234,515.14042 C 345.93328,514.50688 344.43042,514.96376 345.80782,516.74208 C 346.53336,517.96322 346.53336,520.96252 344.20748,519.95582 C 341.143,518.85862 342.63962,513.61148 343.4037,511.92554 C 344.13606,510.913 346.07612,510.16156 346.61234,511.12216 C 347.57936,512.5602 350.57204,511.658 349.02364,507.11032 C 346.97172,503.2674 345.6389,499.06624 346.61234,496.66874 C 347.73618,494.2769 348.63158,495.02852 349.02364,496.66874 C 348.63158,498.31482 349.3832,500.56268 351.42738,499.0791 C 353.27714,502.2097 355.06794,501.7721 356.25034,501.49076 C 361.37222,505.66604 374.2574,513.4675 377.92404,514.33702 C 380.8519,515.85916 380.70642,512.86648 379.53006,511.12216 C 382.35438,511.80858 388.35106,514.96376 391.56688,518.34886 C 393.00474,519.75404 394.04884,519.45966 393.18688,516.74208 C 392.24746,514.65634 387.75098,500.8767 381.13758,498.27608 C 374.8658,495.46688 375.00864,496.37436 371.50052,495.87196 C 369.01762,494.87794 364.3715,492.77406 361.06538,492.65728 C 363.77142,491.57218 368.57266,489.92516 372.3041,490.25242 C 368.86704,486.32504 361.9742,481.5357 349.02364,482.22214 C 347.2846,482.87512 346.82774,481.37888 346.61234,479.00746 C 347.13534,476.88392 349.3832,471.63678 353.03414,466.96552 C 357.4781,462.35152 366.3248,452.44636 366.68418,442.87978 C 366.3248,432.66778 353.87778,432.06674 349.82702,432.43914 C 345.78174,432.06674 336.93504,434.76504 332.15912,439.66604 L 327.3439,442.87978 C 324.49388,445.08872 321.9526,447.36266 320.92096,448.49934 C 319.70474,449.30272 321.05058,450.50592 322.52774,450.1063 C 325.3891,449.421 329.74122,448.69546 331.35442,447.69594 C 331.83848,449.90488 335.14424,451.40132 337.77774,450.9042 C 340.82898,451.10694 346.61234,450.9042 346.61234,450.9042"
       id="path13"
       style="fill:none;stroke:#ffffff;stroke-width:4" />
    <path
       d="M 346.61234,450.9042 C 346.22672,453.50444 345.93328,455.0005 344.20748,456.523 C 342.33184,458.601 308.15254,486.18088 312.08596,519.15206 C 312.35352,523.3536 316.2482,522.75256 316.9078,521.56354 C 317.1436,526.05812 316.84924,533.8477 323.33074,531.99832 C 325.2453,537.14174 329.74122,538.9435 337.77774,538.42164 C 337.8363,541.94922 340.82898,541.94922 344.20748,540.82538 C 346.82774,544.94208 355.5248,553.63308 362.67366,554.48144 C 365.4175,559.33086 372.00936,568.32192 373.91088,570.542 C 375.00864,572.51722 375.61062,576.72498 374.71522,581.7815 C 373.8198,586.31614 368.1158,609.40804 365.88098,613.90338 C 363.91426,618.39984 362.43106,620.188 356.25034,620.31838 C 352.52552,620.188 349.2381,624.3833 348.22026,626.73528 C 347.42876,628.13384 348.78104,629.33626 349.82702,627.54698 C 351.48614,625.4293 352.67592,623.93928 354.64244,623.5342 C 354.47882,625.4293 354.92282,627.67658 354.64244,629.15412 C 353.87778,630.23904 352.67592,631.88474 353.83886,632.35444 C 355.38082,632.48482 356.41926,630.98424 356.25034,629.15412 C 356.72666,627.67658 356.87726,623.93928 361.06538,623.5342 C 362.5618,623.49566 364.3715,621.99242 368.29208,623.5342 C 371.57214,624.3833 376.3558,625.28646 376.32974,629.15412 C 376.3558,631.12708 376.3558,632.32838 377.1267,632.35444 C 378.15794,632.02758 378.3159,630.83874 377.92404,629.15412 C 378.3159,628.13384 377.71394,625.28646 375.51954,624.33154 C 373.51258,623.18126 371.26436,622.43606 370.70338,621.92704 C 370.06928,621.24722 369.3241,619.88722 370.70338,618.7116 C 371.40946,617.79788 373.21898,614.94748 372.3041,613.09394 C 371.11508,611.0541 371.11508,608.65 372.3041,605.068 C 373.21898,601.44974 377.11384,587.66104 377.92404,584.99768 C 378.3159,581.65188 379.3619,579.27156 381.13758,578.56568 C 382.96732,578.05666 384.60244,573.41734 382.74398,571.34086 C 381.6092,568.63406 378.3159,565.77346 378.73348,556.88782 C 380.1067,558.88684 383.0992,561.57816 384.3534,562.51834 C 384.91418,563.66824 384.91418,565.17148 382.74398,566.51826 C 381.32162,567.56426 362.41802,578.51316 354.64244,581.7815 C 349.0754,584.8129 345.6389,589.46468 339.38564,593.0206 C 333.64818,596.3513 335.29614,600.2473 333.76608,601.85408 C 331.98888,603.83988 332.73426,605.20026 333.76608,605.86496 C 333.94256,607.76008 335.58938,608.65 336.17756,605.86496 C 336.19022,603.83988 336.93504,599.65856 339.38564,597.82846 C 340.53554,598.90052 341.73118,598.90052 341.79694,603.46122 C 341.28716,605.20026 343.53408,605.48784 343.4037,603.46122 C 343.53408,601.59258 344.13606,597.99926 341.79694,597.03186 C 343.22724,595.45078 345.3313,593.65998 346.61234,594.62738 C 348.32418,596.3513 348.63158,596.3513 349.02364,597.82846 C 348.63158,599.05658 350.73452,599.20132 350.63042,597.82846 C 350.73452,595.8948 351.0289,593.0599 349.02364,592.20852 C 351.32364,590.65352 353.42754,586.903 357.05374,584.99768 C 360.02072,582.72356 378.45912,572.37174 381.13758,571.34086 C 384.4577,569.66682 387.4634,568.76556 389.97334,568.93524 C 392.84678,568.47798 394.49474,564.73994 392.3767,561.70852 C 390.31078,559.33086 386.54704,555.43674 386.75676,554.48144 C 386.54704,553.03112 385.81734,548.9813 383.54322,548.86226 C 382.0532,549.29494 379.07356,549.43778 377.1267,548.86226 C 376.51188,550.33906 376.06786,551.98702 376.32974,553.68486 C 375.00864,552.72994 372.46736,550.94102 372.3041,549.65924 C 369.91284,550.48454 364.45048,549.65924 361.06538,546.4453 C 358.37368,543.59528 352.34244,536.02886 350.63042,532.8017 C 354.47882,533.99092 358.22972,532.64488 359.45746,531.19492 C 361.52356,532.49448 366.01814,531.89346 367.4887,530.39816 C 369.1616,530.99804 373.21898,531.30566 375.51954,529.59382 C 376.9559,530.99804 379.07356,531.89346 380.3274,531.19492 C 383.85762,533.69654 390.59912,539.98948 393.18688,547.2555 C 395.6968,554.97722 396.89924,576.26586 396.4008,589.80478 C 396.58484,592.00068 398.40172,592.00068 399.60378,589.80478 C 400.19064,588.10694 400.94792,587.50496 402.01998,586.59124 C 402.75234,585.41488 404.68598,584.65722 405.22296,588.21124 C 405.58912,592.15676 409.94012,605.3431 416.47528,610.68794 C 414.74986,605.48784 410.08296,593.80472 410.85384,587.40142 C 410.82776,584.5121 411.74414,584.65722 413.25984,586.59124 C 414.74986,588.86536 426.27464,606.84634 435.73654,612.28148 C 438.71618,613.3014 438.71618,611.34168 437.34332,609.87774 C 436.32568,608.04764 419.84528,591.55666 414.0568,578.56568 C 409.03924,564.8703 398.84536,522.15134 388.36656,517.5451 C 386.10566,517.7996 384.4577,517.50636 383.54322,516.74208 C 381.16366,518.1074 376.3558,517.96322 373.1075,515.14042 C 370.82052,515.85916 367.51478,517.65582 365.07722,511.92554 C 363.91426,510.612 362.86828,511.36362 363.47706,512.72892 C 364.07808,513.76188 365.26692,516.46698 363.47706,516.74208 C 361.06538,517.36238 358.0661,513.30502 356.25034,511.12216 C 355.38082,509.7166 353.87778,509.8672 354.64244,511.12216 C 355.98166,513.16086 358.37368,516.61078 356.25034,517.5451 C 354.77318,518.1074 353.87778,516.46698 353.03414,515.14042 C 352.07488,514.3631 350.88606,514.65634 351.42738,515.944 C 352.38268,517.05478 352.67592,518.2578 351.42738,518.34886 C 350.57204,518.85862 347.57936,517.36238 346.61234,515.14042 C 345.93328,514.50688 344.43042,514.96376 345.80782,516.74208 C 346.53336,517.96322 346.53336,520.96252 344.20748,519.95582 C 341.143,518.85862 342.63962,513.61148 343.4037,511.92554 C 344.13606,510.913 346.07612,510.16156 346.61234,511.12216 C 347.57936,512.5602 350.57204,511.658 349.02364,507.11032 C 346.97172,503.2674 345.6389,499.06624 346.61234,496.66874 C 347.73618,494.2769 348.63158,495.02852 349.02364,496.66874 C 348.63158,498.31482 349.3832,500.56268 351.42738,499.0791 C 353.27714,502.2097 355.06794,501.7721 356.25034,501.49076 C 361.37222,505.66604 374.2574,513.4675 377.92404,514.33702 C 380.8519,515.85916 380.70642,512.86648 379.53006,511.12216 C 382.35438,511.80858 388.35106,514.96376 391.56688,518.34886 C 393.00474,519.75404 394.04884,519.45966 393.18688,516.74208 C 392.24746,514.65634 387.75098,500.8767 381.13758,498.27608 C 374.8658,495.46688 375.00864,496.37436 371.50052,495.87196 C 369.01762,494.87794 364.3715,492.77406 361.06538,492.65728 C 363.77142,491.57218 368.57266,489.92516 372.3041,490.25242 C 368.86704,486.32504 361.9742,481.5357 349.02364,482.22214 C 347.2846,482.87512 346.82774,481.37888 346.61234,479.00746 C 347.13534,476.88392 349.3832,471.63678 353.03414,466.96552 C 357.4781,462.35152 366.3248,452.44636 366.68418,442.87978 C 366.3248,432.66778 353.87778,432.06674 349.82702,432.43914 C 345.78174,432.06674 336.93504,434.76504 332.15912,439.66604 L 327.3439,442.87978 C 324.49388,445.08872 321.9526,447.36266 320.92096,448.49934 C 319.70474,449.30272 321.05058,450.50592 322.52774,450.1063 C 325.3891,449.421 329.74122,448.69546 331.35442,447.69594 C 331.83848,449.90488 335.14424,451.40132 337.77774,450.9042 C 340.82898,451.10694 346.61234,450.9042 346.61234,450.9042"
       id="path15"
       style="fill:#000000" />
    <path
       d="M 349.82702,434.04612 C 352.97672,434.04612 352.81988,435.35322 353.03414,436.45098 C 353.734,437.16236 355.67444,438.20834 357.8507,438.05794 C 360.77196,437.6077 363.47706,438.51594 363.47706,442.87978 C 363.16926,447.19884 362.26856,450.19832 360.26236,454.11888 C 358.37368,457.39914 340.82898,477.9352 337.77774,484.62606 C 336.3344,487.22668 336.79126,489.6187 340.1894,487.84074 C 343.39104,486.32504 351.78052,483.3333 355.44658,486.23396 C 356.5708,487.07628 356.12602,487.6773 353.83886,488.64546 C 351.32364,490.07556 347.2846,491.42802 345.00424,493.46048 C 342.18276,494.72206 342.18276,495.61652 342.6007,498.27608 C 343.39104,501.3143 347.2846,508.20714 339.38564,506.3058 C 339.33236,509.41014 338.88852,515.2585 331.35442,507.9137 C 329.74122,509.11558 329.44646,510.01098 329.75406,511.12216 C 329.44646,511.51422 328.83996,512.86648 327.3439,511.12216 C 325.5531,509.56072 322.24602,508.80912 320.92096,508.7171 C 320.30558,497.71378 325.69594,484.07812 329.75406,478.20274 C 334.83778,471.07486 355.98166,452.29596 352.23114,447.69594 C 350.57204,449.15364 335.14424,451.25752 336.98076,446.08918 C 335.14424,445.40936 333.34134,444.95212 331.35442,445.28466 C 329.74122,446.61104 324.59648,448.9031 324.59648,448.33476 C 324.59648,442.5463 346.67734,434.04612 349.82702,434.04612 z"
       id="path17"
       style="fill:#ffffff" />
    <path
       d="M 341.79694,438.05794 C 340.68614,438.28656 339.56212,440.3914 341.79694,440.46944 C 344.35144,440.53424 346.82774,438.80956 341.79694,438.05794"
       id="path19"
       style="fill:#000000" />
    <path
       d="M 356.25034,534.40886 C 359.72614,534.89368 361.9742,534.89368 363.47706,534.40886 C 365.86756,536.84698 367.51478,539.54548 367.4887,545.64872 C 360.9214,545.37362 357.32242,540.87752 356.25034,538.42164 C 356.5708,537.14174 356.87726,535.04976 356.25034,534.40886"
       id="path21"
       style="fill:#000000" />
    <path
       d="M 369.0966,534.40886 C 370.65804,534.89368 372.76098,534.89368 374.71522,534.40886 C 377.39954,538.19226 377.85866,539.10146 377.92404,544.85138 C 374.2574,544.48558 367.22116,541.94922 369.0966,534.40886"
       id="path23"
       style="fill:#000000" />
    <path
       d="M 381.94702,533.60548 C 380.8519,534.74254 380.8519,535.1994 378.73348,536.01564 C 378.75992,539.98948 381.0076,542.9952 385.14998,543.24422 C 386.41742,541.0487 386.54704,536.09574 381.94702,533.60548"
       id="path25"
       style="fill:#000000" />
  </g>
</svg>
