<?xml version="1.0" encoding="UTF-8"?>
<svg width="1100" height="800" version="1.1" viewBox="0 0 291.04166 211.66667" xmlns="http://www.w3.org/2000/svg" xmlns:cc="http://creativecommons.org/ns#" xmlns:dc="http://purl.org/dc/elements/1.1/" xmlns:rdf="http://www.w3.org/1999/02/22-rdf-syntax-ns#">
 <metadata>
  <rdf:RDF>
   <cc:Work rdf:about="">
    <dc:format>image/svg+xml</dc:format>
    <dc:type rdf:resource="http://purl.org/dc/dcmitype/StillImage"/>
    <dc:title/>
   </cc:Work>
  </rdf:RDF>
 </metadata>
 <g transform="translate(-30.148577,-34.904572)">
  <rect x="30.148577" y="34.904568" width="291.04166" height="211.66667" fill="#ed3c21"/>
  <path d="m166.40898 46.810816-8.39398 47.390675a47.287429 47.287429 0 0 0-7.605 2.0377l-30.96456-36.844625 16.42611 45.238604a47.287429 47.287429 0 0 0-5.56757 5.56705l-45.238337-16.425861 36.844617 30.964571a47.287429 47.287429 0 0 0-2.0377 7.60501l-47.39065 8.39397 47.39065 8.39372a47.287429 47.287429 0 0 0 2.0377 7.60501l-36.844617 30.96481 45.238597-16.42611a47.287429 47.287429 0 0 0 5.56731 5.56731l-16.42611 45.23834 30.96456-36.84464a47.287429 47.287429 0 0 0 7.605 2.03797l8.39398 47.39067 8.39372-47.39067a47.287429 47.287429 0 0 0 7.60501-2.03797l30.96483 36.84464-16.42638-45.23834a47.287429 47.287429 0 0 0 5.56732-5.56731l45.23859 16.42611-36.84463-30.96481a47.287429 47.287429 0 0 0 2.03797-7.60501l47.39067-8.39372-47.39094-8.39397a47.287429 47.287429 0 0 0-2.0377-7.60501l36.84463-30.964571-45.23834 16.426121a47.287429 47.287429 0 0 0-5.56731-5.56731l16.42612-45.238604-30.96483 36.844625a47.287429 47.287429 0 0 0-7.60501-2.0377z" fill="#ffea24" stroke-linecap="round" stroke-linejoin="round" stroke-width="2.11667"/>
 </g>
</svg>
