<?xml version="1.0" encoding="UTF-8" ?>
<!DOCTYPE svg PUBLIC "-//W3C//DTD SVG 1.1//EN" "http://www.w3.org/Graphics/SVG/1.1/DTD/svg11.dtd">
<svg width="374pt" height="206pt" viewBox="0 0 374 206" version="1.1" xmlns="http://www.w3.org/2000/svg">
<rect fill="#ffffff" width="374" height="206"/>
<rect fill="#ff0000" width="374" height="72"/>
<rect fill="#0000a0" width="374" height="60" y="146"/>
<path fill="#000000" stroke="#000000" stroke-width="0.09375" d="M101.924,107.612C101.924,120.999,105.31,134.425,111.9,146.1C123.7,167.5,145.8,182.9,169.9,187C175.186,187.508,180.564,187.856,185.937,187.856C196.42,187.856,206.881,186.533,216.6,182.5C234.6,175.9,249.8,162.7,259.2,146.1C265.842,134.655,269.117,121.486,269.117,108.302C269.117,95.6831,266.117,83.0501,260.2,71.9C251,54.4,235.3,40.4,216.6,33.5C206.881,29.4671,196.42,28.1442,185.937,28.1442C180.564,28.1442,175.186,28.4917,169.9,29C145,33.2,122.4,49.5,110.8,71.9C104.834,82.8208,101.924,95.1998,101.924,107.612Z
M163.771,106.517C163.771,97.3685,172.296,89.3508,181.4,88.5C183.219,88.0453,185.126,87.8231,187.053,87.8231C196.146,87.8231,205.677,92.7712,208.4,101.6C208.967,103.24,209.229,104.877,209.229,106.48C209.229,115.337,201.237,123.145,192.6,124.5C190.755,124.904,188.801,125.108,186.816,125.108C177.504,125.108,167.485,120.632,164.6,111.4C164.033,109.759,163.771,108.121,163.771,106.517Z
M174.7,113.3C180.1,122,194.7,121.3,199,112C203.9,103,196,91.9,186.2,92.4C176,92.1,168.9,104.8,174.7,113.3Z
M103.885,107.594C103.885,95.2299,106.798,82.9002,112.8,72C120.3,59.2,130.7,47.8,143.9,40.8C156.533,33.5552,171.114,29.9189,185.684,29.9189C203.291,29.9189,220.882,35.2296,235,45.9C244.6,52.8,252.4,61.8,258.2,72C264.131,83.1319,267.107,95.658,267.107,108.177C267.107,121.411,263.781,134.637,257.1,146.2C242.567,169.963,215.596,185.916,187.548,185.916C187.032,185.916,186.516,185.911,186,185.9C185.008,185.941,184.016,185.961,183.026,185.961C155.086,185.961,128.29,169.762,113.9,146.1C107.298,134.404,103.885,120.979,103.885,107.594Z
M119.1,111.9C123.4,115.8,129.1,111.5,133.6,110.2C142.3,108.3,151.3,109.3,160.1,109C162.3,113.7,165,118.2,167.8,122.5C160.2,130.4,152.1,138,144.9,146.4C144.392,146.865,144.01,147.098,143.745,147.098C143.384,147.098,143.242,146.665,143.3,145.8C141.3,145.8,137.4,145.8,135.4,145.8C133.6,149.5,131.4,153.8,132.9,158C134.5,162.4,142.1,164.2,144.5,159.7C147.1,155.3,147.9,150.1,150.7,145.9C157.4,138.7,164,131.2,172.1,125.6C176.2,125.7,180.1,127.1,184.1,127.8C184.1,133.9,184.2,139.9,184.2,146C183.7,152.9,182.6,159.7,180.7,166.2C180,169.4,178.7,173.2,181.1,175.9C182.348,177.504,184.294,178.231,186.274,178.231C189.847,178.231,193.529,175.861,193.4,172C191.5,163.4,188.8,154.9,188.9,146C188.8,140.1,189,134.1,189,128.1C194.3,127.5,201.1,122.3,205.8,127.1C212.2,133.1,218.4,139.4,224.5,145.8C227.9,150.3,227,156.9,231.3,160.8C232.332,160.938,233.435,161.063,234.519,161.063C236.587,161.063,238.588,160.606,239.9,158.9C241.147,157.584,241.602,156.088,241.602,154.524C241.602,151.573,239.981,148.38,239,145.7C235,145.2,230.2,146.2,227.3,142.8C219.7,135.9,212.8,128.3,205.7,121C209.4,115.7,212.1,105.9,221,108.7C231.2,107.7,240.6,112.2,250.6,113.3C256.3,112.9,258.2,104.5,253.9,101.1C249.6,97.2,243.9,101.5,239.4,102.8C230.6,104.7,221.5,103.7,212.6,104.1C211.3,100.8,209.9,97.6,208.4,94.4C215.7,86.7,223.1,79,230.8,71.6C235.1,69.4,241.2,70.4,244.1,66.1C247.7,59.8,241.5,51.3,234.3,54.2C229.6,59.4,230,67.5,224.4,72.3C218.3,78.6,211.8,84.7,205.4,90.8C200.1,88.4,194.6,86.3,189.1,84.4C189,80.3,188.9,76.1,188.9,72C188.9,62.6,189.1,53,192.6,44.2C195.538,39.7483,191.817,33.7111,186.873,33.7111C186.264,33.7111,185.636,33.8026,185,34C180.7,34.3,178.2,39.8,180.2,43.5C182.8,52.8,184.2,62.3,184.1,72C184.1,76.1,184,80.2,183.9,84.3C178.9,85.9,174,87.8,169.1,89.6C163.3,83.8,157.4,78.1,151.6,72.3C149.6,69.9,147.1,67.8,145.7,65C144.1,61,144.1,56.1,140.7,53C133.2,50,126.9,59.8,131.3,65.6C135.2,69.1,141.3,68.2,145.3,71.7C152.4,78.3,159,85.6,165.8,92.6C164,96.4,162.1,100.2,160.4,104.1C152.7,103.9,144.9,104.1,137.3,102.8C132,102.1,127.1,99.4,121.7,99.8C116.4,100.9,115.1,108.7,119.1,111.9Z"/>
</svg>